<?xml version="1.0" encoding="UTF-8" standalone="no"?>
<!-- Created with Inkscape (http://www.inkscape.org/) -->

<svg
   xmlns:dc="http://purl.org/dc/elements/1.1/"
   xmlns:cc="http://creativecommons.org/ns#"
   xmlns:rdf="http://www.w3.org/1999/02/22-rdf-syntax-ns#"
   xmlns:svg="http://www.w3.org/2000/svg"
   xmlns="http://www.w3.org/2000/svg"
   xmlns:sodipodi="http://sodipodi.sourceforge.net/DTD/sodipodi-0.dtd"
   xmlns:inkscape="http://www.inkscape.org/namespaces/inkscape"
   version="1.1"
   id="svg2"
   xml:space="preserve"
   width="1066.6667"
   height="800"
   viewBox="0 0 1066.6667 800"
   sodipodi:docname="madagascar.svg"
   inkscape:version="0.92.4 5da689c313, 2019-01-14"><metadata
     id="metadata8"><rdf:RDF><cc:Work
         rdf:about=""><dc:format>image/svg+xml</dc:format><dc:type
           rdf:resource="http://purl.org/dc/dcmitype/StillImage" /><dc:title></dc:title></cc:Work></rdf:RDF></metadata><defs
     id="defs6" /><sodipodi:namedview
     pagecolor="#ffffff"
     bordercolor="#666666"
     borderopacity="1"
     objecttolerance="10"
     gridtolerance="10"
     guidetolerance="10"
     inkscape:pageopacity="0"
     inkscape:pageshadow="2"
     inkscape:window-width="621"
     inkscape:window-height="729"
     id="namedview4"
     showgrid="false"
     inkscape:zoom="0.67621005"
     inkscape:cx="547.45763"
     inkscape:cy="183.39833"
     inkscape:window-x="10"
     inkscape:window-y="59"
     inkscape:window-maximized="0"
     inkscape:current-layer="g10" /><g
     id="g10"
     inkscape:groupmode="layer"
     inkscape:label="mg-02"
     transform="matrix(1.3333333,0,0,-1.3333333,0,800)"><g
       id="boeny"
       transform="translate(325.8691,405.7803)"
       inkscape:label="boeny"><path
         d="m 0,0 0.231,0.376 0.277,0.323 0.519,0.307 0.516,0.142 1.076,0.171 0.492,0.219 -0.303,0.265 2.175,1.041 1.081,0.696 0.733,0.939 1.273,2.14 0.838,1.056 0.833,0.806 1.011,0.597 2.297,0.996 1.459,1.008 0.264,-0.241 0.085,-0.562 0.055,-1.232 0.653,-2.159 0.037,-0.19 0.021,-0.36 -0.021,-0.275 -0.21,-0.788 -0.049,-0.66 0.061,-0.506 0.28,-0.332 0.589,-0.117 0.571,0.19 0.371,0.423 0.316,0.5 0.401,0.37 1.27,0.483 0.528,0.371 0.249,0.607 -0.094,0.337 -0.732,0.279 -0.444,0.465 -0.303,0.654 -0.018,0.493 0.34,0.313 6.098,0.663 0.257,0.079 0.274,0.13 0.489,0.322 0.277,-1.084 0.285,-0.404 0.14,-0.095 0.055,-0.146 0.009,-0.549 -0.404,-1.125 0.024,-0.393 0.653,0.326 0.256,-0.756 0.273,0.089 0.364,0.667 -0.382,2.001 0.112,0.429 0.596,0.604 0.292,0.436 -0.034,0.098 0.034,0.982 0.075,0.342 0.128,0.287 0.091,0.304 -0.018,0.395 -0.292,0.492 -0.401,0.338 -0.216,0.344 0.271,0.534 1.203,1.289 1.23,0.801 0.389,0.026 0.62,-0.246 0.559,-0.146 h 0.571 l 0.55,-0.063 1.349,-0.868 0.839,0.123 2.275,1.336 0.468,0.17 0.504,0.098 0.578,0.035 0.808,-0.117 0.279,-0.341 -0.067,-1.285 0.031,-0.61 0.136,-0.316 0.308,-0.145 0.54,-0.123 0.317,-0.029 0.649,0.051 0.316,-0.022 1.015,-0.552 0.863,-0.032 v 0.24 L 44,14.206 l -0.244,0.663 0.159,0.417 0.34,0.338 0.285,0.419 0.006,0.679 -0.899,-0.467 -0.875,-0.682 -0.504,-0.24 0.218,0.859 0.541,0.884 0.772,0.805 0.878,0.691 0.86,0.537 0.851,0.344 0.893,0.173 1.853,0.007 0.939,-0.123 0.434,-0.155 0.182,-0.262 0.004,-0.454 0.051,-0.408 0.149,-0.372 0.301,-0.341 -0.431,-0.701 -0.177,-0.619 -0.258,-0.552 -0.69,-0.512 0.815,-0.673 0.595,-0.606 0.474,-0.71 1.312,-2.714 0.602,-0.733 0.82,-0.686 0.037,0.379 -0.027,0.496 0.033,0.462 0.213,0.255 0.301,-0.094 0.419,-0.739 0.294,-0.228 0.742,0.17 0.313,0.674 -0.028,0.843 -0.261,0.698 0.984,0.095 0.718,-0.698 0.647,-0.926 0.756,-0.591 0.389,0.304 -0.407,1.027 -0.893,1.608 -0.738,0.331 -1.547,1.459 -0.93,0.332 -1.203,-0.073 -0.328,0.073 -0.68,0.414 0.066,0.259 0.444,0.252 0.45,0.398 0.99,1.559 0.164,0.758 -0.407,0.6 -0.41,0.044 -0.511,-0.07 h -0.428 l -0.182,0.291 0.121,0.628 0.544,1.06 0.416,1.417 0.705,0.745 1.665,1.331 2.355,2.668 0.866,0.643 0.063,-0.199 0.082,-0.161 0.067,-0.179 0.019,-0.256 0.416,0.237 1.011,0.964 1.586,1.164 0.444,0.422 0.878,0.599 0.993,0.101 0.985,-0.016 0.847,0.255 -0.492,0.334 -1.157,0.322 -0.137,0.375 0.401,0.419 2.151,0.529 3.847,2.804 2.816,2.588 1.577,0.463 1.039,0.567 0.58,0.129 0.24,-0.129 0.112,-0.299 0.049,-0.359 -0.006,-1.02 0.061,-0.211 0.456,-0.961 0.294,-0.39 0.401,-0.331 0.583,-0.337 1.277,-0.529 0.629,-0.422 0.005,-0.479 -0.37,-0.504 -0.565,-0.983 -0.465,-0.397 -0.58,-0.385 -0.383,-0.406 -1.662,-3.364 -0.446,-1.305 0.118,-0.914 0.401,-0.089 0.277,0.543 0.339,1.274 0.438,0.397 0.681,0.224 1.328,0.198 1.266,0.479 1.179,0.631 1.161,0.337 -1.279,-7.324 1.402,-6.316 1.404,-8.268 2.806,-4.38 2.338,-3.409 0.468,-3.41 -2.806,-3.411 -2.806,-2.926 4.209,-3.415 1.871,-2.928 -1.404,-1.953 -3.273,1.465 -4.209,1.952 -4.678,0.488 -5.612,-0.488 -4.974,-0.85 -1.574,-6.473 -2.806,-6.842 -4.209,-0.978 -2.339,-2.935 -2.338,-1.467 -1.87,-4.405 -2.339,-1.469 -4.209,3.427 -2.807,3.914 -1.403,2.446 h -7.951 l -4.208,1.956 -7.016,-1.467 -1.871,3.422 -3.741,0.977 -3.274,3.909 -0.468,3.418 -3.741,1.953 -4.678,3.904 -2.338,4.39 -0.468,4.874 z"
         style="fill:none;stroke:#000000;stroke-width:0.5;stroke-linecap:round;stroke-linejoin:round;stroke-miterlimit:4;stroke-dasharray:none;stroke-opacity:1"
         id="path14"
         inkscape:connector-curvature="0" /></g><g
       id="sofia"
       transform="translate(410.6113,435.3765)"
       inkscape:label="sofia"><path
         d="M 0,0 1.209,-0.413 2.563,0.104 3.153,0.511 3.274,1.201 3.129,1.421 2.886,1.478 2.582,1.503 2.254,1.598 1.935,1.793 1.798,1.967 1.172,3.136 0.656,5.593 0.668,5.839 0.547,5.955 0.075,5.984 -0.256,5.917 -1.337,5.429 -1.44,5.92 -1.392,6.361 -1.036,7.3 -1.544,7.231 -1.951,7.243 -2.23,7.426 l -0.231,0.787 -0.636,0.369 -0.255,0.33 -0.073,0.876 0.328,0.834 1.019,1.435 1.242,1.111 1.607,1.063 1.398,1.24 0.809,2.287 0.522,0.689 1.88,1.786 0.784,0.459 0.842,0.289 0.881,0.098 0.483,0.424 0.112,0.899 L 8.239,23.201 7.632,23.32 7.222,22.975 7.003,22.352 6.586,22.132 6.009,22.098 5.656,22.314 5.079,23.188 h 0.232 l 1.124,1.804 4.66,4.967 0.522,0.386 0.243,-0.151 0.147,-0.427 0.236,-0.468 0.766,-0.885 0.049,-0.406 -0.164,-2.365 0.139,-0.585 0.158,-0.151 0.247,-0.085 0.237,-0.176 0.118,-0.402 -0.098,-0.107 -0.413,-0.949 -2.144,-2.521 -0.566,-0.909 -0.38,-1.154 -0.382,-4.725 0.125,-0.465 0.522,-0.299 0.443,0.094 1.225,0.68 0.374,0.283 0.674,1.054 0.352,1.079 0.487,1.019 1.057,0.853 0.419,-0.324 0.128,0.355 -0.037,1 0.21,0.645 2.671,5.133 0.2,1.125 0.164,0.477 1.216,1.251 0.106,0.32 -0.003,0.697 0.139,0.296 0.286,0.223 0.638,0.311 0.213,0.141 0.842,0.98 0.337,0.568 0.139,0.534 0.262,0.59 0.553,0.314 0.528,0.386 0.167,0.82 1.586,-2.232 0.729,-0.641 0.49,-0.198 1.17,-0.326 0.403,-0.296 0.195,-0.461 -0.043,-0.895 0.082,-0.484 0.544,0.616 0.039,0.857 -0.306,0.782 -0.511,0.405 1.036,0.832 0.988,-0.113 0.745,-0.81 0.288,-1.244 -0.055,-2.623 0.204,-0.731 0.619,0.973 0.21,1.134 -0.012,1.586 -0.34,1.411 -0.75,0.612 -0.502,0.169 -0.468,0.406 -0.826,0.885 -0.702,0.379 -0.562,-0.088 -1.17,-0.696 -0.483,-0.198 -0.483,-0.097 -0.513,0.119 -0.563,0.465 -0.301,0.54 -0.23,0.558 -0.255,0.204 -1.055,-1.466 -0.473,-0.455 -0.374,-0.198 -0.228,0.301 -0.775,1.395 -0.176,0.433 0.076,0.156 0.38,0.384 0.075,0.251 -0.072,0.37 -0.144,0.219 -0.167,0.183 -0.634,1.337 0.015,0.231 0.155,0.126 0.067,0.113 -0.423,0.329 -0.069,0.117 0.06,1.662 0.238,1.299 0.464,1.213 0.766,0.982 0.89,0.542 0.276,0.317 0.107,0.614 0.048,1.148 0.156,0.413 0.331,0.408 0.881,0.279 1.738,-1.263 1.215,0.069 0.498,0.131 0.741,-0.103 0.301,0.103 0.325,0.427 0.237,0.627 0.149,0.664 0.054,0.53 -0.136,0.88 -0.371,1.059 -0.568,0.918 -0.729,0.436 0.489,0.526 0.803,-0.226 1.534,-1.112 0.301,-0.16 0.321,-0.125 0.305,-0.169 0.23,-0.307 0.049,-0.502 -0.24,-0.369 -0.31,-0.361 -0.149,-0.488 -0.121,-0.981 -0.541,-1.991 -0.122,-0.997 -0.006,-0.348 0.054,-0.601 0.232,-0.48 0.504,-0.01 0.249,0.31 0.018,0.436 -0.049,0.452 0.037,0.357 0.292,0.239 0.48,0.303 0.38,0.339 v 0.329 l -0.295,0.345 -0.289,0.439 -0.219,0.476 -0.072,0.446 0.27,0.846 1.008,1.384 0.232,0.822 v 0.892 l -0.104,0.887 -0.331,0.683 -0.308,0.105 0.003,0.003 0.012,0.01 0.272,0.244 0.128,0.092 0.289,0.261 0.081,0.148 -0.029,0.207 -0.399,0.591 v 0.197 l 0.109,0.129 0.834,0.227 0.179,0.083 0.145,0.096 0.153,0.151 0.038,0.059 0.065,0.118 0.039,0.177 -0.004,0.214 -0.046,0.211 -0.129,0.388 -0.04,0.191 0.034,0.198 0.104,0.144 0.151,0.113 1.449,0.662 0.156,0.105 0.72,0.611 0.323,0.202 1.449,0.658 1.245,0.892 0.353,0.181 0.185,0.076 0.193,0.002 0.174,-0.108 0.093,-0.31 L 41.298,60.376 41.229,60.159 41.14,59.982 40.925,59.665 40.317,58.941 40.225,58.774 39.779,58.156 38.88,57.464 38.771,57.307 38.689,57.124 38.51,56.241 v -0.445 l 0.041,-0.298 0.046,-0.197 0.138,-0.183 0.22,-0.138 0.442,-0.069 0.255,0.052 0.197,0.107 0.231,0.296 0.133,0.128 0.174,0.046 0.215,-0.07 0.468,-0.517 0.946,-1.283 0.231,-0.179 1.432,-0.789 0.202,-0.144 0.654,-0.586 0.451,-0.309 0.888,-0.447 0.457,-0.13 0.359,-0.044 0.208,0.054 0.574,0.221 0.916,0.133 0.601,0.197 1.068,0.516 0.318,0.211 0.428,0.369 0.15,0.108 0.174,0.097 0.191,0.06 0.332,-0.137 0.416,-0.327 1.408,-1.601 0.225,-0.175 0.436,-0.207 1.18,-0.392 0.192,-0.119 2.324,-1.817 0.201,-0.109 0.193,-0.07 0.226,-0.014 0.214,0.03 0.202,0.054 0.568,0.223 0.213,0.039 h 0.459 l 0.227,0.026 0.179,0.078 0.296,0.235 0.172,0.083 0.244,-0.054 0.249,-0.181 0.806,-1.228 0.105,-0.209 0.075,-0.471 0.093,-0.175 0.138,-0.102 0.244,0.028 0.156,0.117 0.133,0.154 0.098,0.161 0.266,0.269 0.963,0.627 0.759,0.296 0.168,0.096 0.138,0.127 0.98,1.421 0.138,0.127 0.162,0.102 0.186,0.077 0.44,0.09 0.544,0.236 0.249,-0.012 0.268,-0.105 0.411,-0.281 0.226,-0.121 0.243,-0.076 0.688,-0.097 0.232,-0.07 0.227,-0.089 1.98,-1.127 0.181,-0.027 0.174,0.053 0.202,-0.048 0.232,-0.18 0.29,-0.637 0.457,-1.513 0.115,-0.197 0.174,-0.185 0.301,-0.263 0.205,-0.243 0.196,-0.424 0.168,-0.265 1.03,-0.748 1.311,-1.35 1.088,-0.773 0.139,-0.131 0.14,-0.199 0.469,-0.917 0.695,-0.906 0.772,-0.681 0.178,-0.088 0.4,-0.134 0.371,-0.167 0.162,-0.107 0.411,-0.375 0.161,-0.104 0.55,-0.259 0.148,-0.114 0.549,-0.52 0.116,-0.187 0.087,-0.219 0.011,-0.368 -0.075,-0.224 -0.122,-0.177 -0.463,-0.335 -0.277,-0.245 -0.116,-0.154 -0.193,-0.341 -0.069,-0.191 0.006,-0.215 0.103,-0.215 0.639,-0.557 0.688,-0.97 0.348,-0.393 0.231,-0.385 1.351,-3.079 0.052,-0.194 0.023,-0.201 -0.029,-0.209 -0.109,-0.39 -0.018,-0.185 0.052,-0.203 0.723,-1.9 0.127,-0.239 0.18,-0.264 0.384,-0.361 0.387,-0.266 0.336,-0.149 0.342,-0.213 1.814,-2.432 0.255,-0.497 0.387,-1.328 -0.278,0.024 -0.353,-0.101 -0.179,-0.084 -0.162,-0.108 -0.139,-0.126 -0.656,-0.95 -0.243,-0.214 -0.249,-0.104 -0.232,0.008 -0.226,0.036 -0.208,0.054 -0.162,0.066 -0.116,0.064 -0.858,0.609 -0.168,0.089 -0.173,0.044 -0.186,-0.086 -0.132,-0.203 -0.093,-0.418 -0.006,-0.299 0.012,-0.264 0.237,-0.846 0.022,-0.48 -0.051,-0.477 -0.058,-0.212 -0.324,-0.865 -0.058,-0.284 v -0.246 l 0.034,-0.179 0.105,-0.256 0.058,-0.184 0.035,-0.224 0.022,-0.492 -0.087,-0.717 -0.103,-0.226 -0.151,-0.213 -0.312,-0.21 -0.243,-0.108 -0.269,-0.055 -0.486,0.019 -0.451,0.089 -0.574,0.223 -0.19,0.047 L 83.17,11.679 83,11.576 82.885,11.384 82.855,11.05 v -0.276 l 0.03,-0.232 0.081,-0.18 0.216,-0.308 L 83.274,9.876 83.332,9.667 83.361,9.435 83.35,9.189 83.32,8.955 83.182,8.559 83.066,8.351 82.902,8.139 82.618,7.919 82.364,7.859 82.138,7.881 81.524,8.069 81.311,8.087 81.107,8.049 80.921,7.973 80.765,7.839 80.423,7.469 80.221,7.361 79.821,7.211 78.791,6.539 78.465,6.451 78.182,6.433 77.701,6.487 77.464,6.475 77.243,6.433 77.047,6.367 76.861,6.285 76.529,6.079 76.356,5.931 76.188,5.743 75.975,5.439 75.807,5.247 75.639,5.093 75.279,4.925 74.468,4.673 73.414,4.129 73.212,4.069 72.991,4.031 72.76,4.033 72.336,4.097 H 72.109 L 71.896,4.061 71.474,3.949 70.511,3.827 70.082,3.721 69.908,3.553 69.764,3.301 69.665,2.774 v -0.32 l 0.069,-0.252 0.186,-0.346 0.063,-0.202 0.047,-0.488 0.04,-0.223 0.059,-0.212 0.179,-0.348 0.118,-0.15 0.15,-0.116 0.174,-0.094 0.196,-0.072 0.22,-0.048 0.243,-0.006 0.227,0.028 0.382,0.104 0.202,-0.014 0.168,-0.078 0.156,-0.118 0.164,-0.1 0.174,-0.069 0.196,0.009 0.354,0.112 h 0.144 l 0.087,-0.121 0.024,-0.184 -0.082,-0.278 -0.173,-0.322 -0.4,-0.497 -0.61,-0.552 -0.121,-0.211 -0.105,-0.268 -0.057,-0.498 0.041,-0.293 0.075,-0.242 0.075,-0.184 0.064,-0.192 0.028,-0.211 v -0.236 l -0.631,-4.756 -0.463,-1.691 -0.069,-0.463 v -0.247 l 0.023,-0.232 0.058,-0.209 0.093,-0.176 0.463,-0.605 0.208,-0.337 0.318,-0.744 0.245,-0.818 0.446,-2.223 0.04,-0.469 -0.028,-0.267 -0.093,-0.339 -0.488,-0.967 -0.526,-0.714 -0.921,-0.992 -0.22,-0.298 -0.267,-0.557 -0.372,-1.135 -0.011,-0.091 -0.335,-1.361 -0.522,-1.227 -0.046,-0.333 0.064,-0.239 0.133,-0.133 0.15,-0.114 3.488,-1.637 1.157,-0.191 1.479,-0.074 0.428,-0.1 0.393,-0.153 0.156,-0.112 0.124,-0.149 0.082,-0.183 0.04,-0.227 0.011,-0.231 -0.034,-0.448 0.017,-0.205 0.231,-0.545 0.059,-0.215 0.034,-0.221 -0.081,-0.357 -0.173,-0.447 -2.219,-4.084 -0.174,-0.441 -0.043,-0.434 -0.049,-0.205 -0.107,-0.26 -0.572,-0.867 -0.753,-0.587 -1.472,-0.748 -0.209,-0.061 -0.213,-0.042 -0.232,-0.012 -0.226,-0.102 -0.191,-0.21 -0.15,-0.478 -0.034,-0.328 0.026,-0.526 -0.097,-0.362 -0.186,-0.441 -0.475,-0.805 -0.388,-0.937 -0.156,-0.268 -0.307,-0.328 -0.355,-0.294 -0.224,-0.232 -0.181,-0.251 -0.127,-0.375 -0.006,-0.265 0.041,-0.238 0.196,-0.34 0.355,-0.452 0.082,-0.165 -0.012,-0.201 -0.14,-0.181 -0.331,-0.177 -0.266,-0.097 -1.837,-0.331 -0.232,0.025 -0.214,0.052 -0.775,0.296 -0.22,0.018 -0.638,-0.108 -0.452,0.018 -0.22,-0.018 -0.202,-0.065 -0.186,-0.078 -3.176,-2.222 -0.694,-0.657 -0.301,-0.24 -0.33,-0.211 -0.174,-0.085 -0.208,-0.05 -0.219,-0.006 -0.205,0.054 -0.168,0.109 -0.139,0.133 -1.193,1.793 -0.34,0.723 -0.136,0.411 -0.087,0.447 v 0.505 l 0.029,0.246 0.117,0.431 0.161,0.373 0.592,1.026 0.157,0.389 0.051,0.213 0.012,0.222 -0.046,0.205 -0.081,0.175 -0.417,0.393 -0.121,0.145 -0.104,0.167 -0.066,0.189 -0.023,0.219 0.043,0.431 -0.078,0.946 -0.05,0.221 -0.089,0.177 -0.208,0.33 -0.081,0.187 -0.081,0.577 -0.081,0.158 -0.133,0.12 -0.33,0.205 -0.151,0.121 -0.104,0.167 -0.115,0.418 -0.093,0.173 -0.261,0.278 -0.633,0.441 -0.729,0.359 -0.81,0.27 -0.373,0.169 -0.659,0.418 -1.03,1.38 -0.419,0.384 -0.289,0.211 -0.186,0.07 -0.208,0.018 -0.862,-0.161 -0.472,0.012 -0.237,-0.012 -0.364,-0.114 -0.168,0.018 -0.11,0.121 -0.075,0.187 -0.047,0.749 -0.069,0.205 -0.127,0.139 -0.18,0.091 -0.679,0.134 -0.191,0.077 -0.179,0.096 -0.278,0.263 -0.492,0.314 -0.139,0.128 -0.579,0.758 -0.425,0.384 -0.161,0.104 -0.179,0.077 -0.198,0.03 -0.405,-0.079 -0.225,-0.018 -0.226,0.014 -0.214,0.053 -0.459,0.048 -1.797,-0.313 -0.196,-0.073 -0.516,-0.283 -0.196,-0.077 -0.666,-0.134 -0.19,-0.071 -0.18,-0.09 -0.193,-0.076 -0.203,-0.054 -0.243,-0.013 -0.931,0.055 -0.208,0.046 -0.186,0.074 -0.348,0.207 -0.186,0.074 -0.226,0.017 -0.215,-0.024 -0.457,0.005 -0.417,0.109 -0.376,0.159 -0.21,0.046 h -0.197 l -0.196,-0.048 -0.324,-0.187 -0.162,-0.066 -0.117,-0.013 -0.173,0.024 -0.318,0.184 -0.18,0.064 -0.15,-0.079 -0.093,-0.209 0.012,-0.476 -0.029,-0.259 -0.121,-0.281 -0.292,-0.302 -0.469,-0.332 -0.272,-0.265 -0.219,-0.319 -0.249,-0.56 -0.041,-0.275 v -0.338 l 0.278,-1.349 0.058,-0.48 -0.006,-0.356 -0.301,-2.326 -0.075,-0.265 -0.255,-0.604 -0.058,-0.237 -0.11,-0.932 -5.675,1.561 -3.273,1.463 -1.871,1.463 h -4.209 l -3.274,1.949 -3.274,1.95 -0.468,3.41 -2.338,3.409 -2.807,4.38 -1.403,8.267 -1.402,6.317 z"
         style="fill:none;stroke:#000000;stroke-width:0.5;stroke-linecap:round;stroke-linejoin:round;stroke-miterlimit:4;stroke-dasharray:none;stroke-opacity:1"
         id="path18"
         inkscape:connector-curvature="0" /></g><g
       id="diana"
       transform="translate(454.8291,515.7871)"
       inkscape:label="diana"><path
         d="m 0,0 0.273,-0.303 0.52,-0.346 0.437,-0.407 0.045,-0.487 -0.249,-0.281 -0.37,-0.169 -0.41,-0.081 -0.383,-0.025 -0.182,0.091 -0.124,0.187 -0.068,0.188 v 0.09 l -0.224,-0.043 -0.536,-0.244 -1.354,0.219 -0.465,0.212 -0.502,0.375 h -0.255 v -0.519 l -0.164,0.006 -0.1,0.072 -0.091,0.091 -0.131,0.062 -0.361,0.462 -0.246,0.809 -0.176,1.64 0.145,0.743 0.207,0.655 -0.021,0.481 -0.566,0.212 0.38,0.506 0.55,-0.162 0.587,-0.269 0.504,0.213 0.249,-0.238 0.355,-0.168 0.38,-0.038 0.285,0.156 0.049,0.297 -0.181,0.29 -0.232,0.3 -0.121,0.309 0.03,0.786 0.173,0.44 0.416,0.181 0.769,0.038 L -0.511,6.144 -0.21,5.663 -0.246,5.02 -0.639,4.361 -0.311,4.165 0.063,3.378 0.34,2.523 0.373,2.117 0.826,1.849 0.626,1.214 0.209,0.506 Z m -11.236,-27.021 -1.172,0.401 -0.826,0.583 -1.362,1.306 2.838,1.487 v 0.485 l -1.796,1.18 -1.504,0.608 -0.419,0.335 -0.978,1.843 -0.577,2.515 0.298,2.146 1.63,0.738 -0.397,0.594 -0.459,0.219 -0.35,0.351 -0.072,0.959 0.115,0.807 0.298,1.144 0.504,0.791 0.754,-0.25 0.559,-0.044 0.306,0.95 0.164,1.719 0.32,0.294 0.401,0.244 h 0.392 l 0.289,-0.406 -0.158,-0.241 -0.377,-0.319 -0.231,-0.431 0.258,-0.585 0.21,0.116 0.364,0.075 0.21,0.072 -0.201,-0.466 0.082,-0.428 0.298,-0.206 0.44,0.193 0.147,0.319 0.009,0.338 0.152,0.309 0.583,0.225 -0.687,0.75 -0.048,0.284 1.385,-0.005 0.572,-0.438 0.257,-0.981 0.137,-1.057 0.191,-0.675 1.037,0.475 0.571,-0.322 0.285,-0.788 0.167,-0.937 0.648,-1.742 0.097,-0.644 v -0.263 l 0.03,-0.259 0.116,-0.207 0.583,-0.216 -0.088,-0.294 -0.386,-0.465 0.413,-0.773 0.976,-0.729 1.108,-0.544 0.827,-0.207 1.057,0.272 1.072,0.704 0.514,0.939 -0.619,0.994 0.26,0.597 0.019,2.027 0.209,0.622 0.684,1.238 0.133,0.522 -0.813,1.354 -0.164,0.684 0.722,0.325 0.432,-0.219 1.094,-1.619 0.191,0.713 0.325,0.687 0.383,0.575 0.37,0.388 0.481,0.175 0.701,0.119 0.69,0.031 0.45,-0.062 -0.009,0.19 L 5.9,-5.435 5.888,-5.242 6.751,-6 7.191,-6.241 7.547,-6.154 7.465,-5.816 6.812,-4.473 6.517,-3.404 5.86,-2.536 5.608,-2.099 5.496,-1.58 5.475,-1.049 5.608,0 l 0.583,-0.134 0.341,-0.353 0.261,-0.434 0.371,-0.391 0.018,-0.625 0.683,-0.461 1.979,-0.788 0.345,-0.078 0.374,0.056 0.447,0.207 0.466,0.112 0.47,-0.075 0.441,-0.131 0.404,-0.047 1.355,0.384 1.361,0.797 1.222,1.062 0.929,1.186 -0.65,0.762 0.534,1.093 1.392,1.695 -0.122,0.471 -0.546,0.893 -0.119,0.599 0.021,1.261 0.085,0.643 0.842,3.02 0.495,1.066 1.036,1.397 0.289,0.593 0.222,0.617 0.091,0.48 0.182,0.434 0.438,0.57 0.506,0.493 0.405,0.19 -0.164,0.969 0.592,2.475 0.083,1.025 -0.216,0.489 -0.751,0.897 -0.31,0.464 -0.24,0.527 -0.146,0.43 -0.194,1.716 -0.14,0.426 -0.555,0.826 -0.235,0.146 -0.203,-0.056 -0.185,0.031 -0.164,0.399 0.011,0.386 0.183,0.224 0.21,0.187 0.127,0.271 -0.027,0.317 -0.213,0.467 -0.015,0.262 0.419,0.937 0.092,0.109 -0.283,0.457 -0.429,0.047 -0.526,-0.205 -0.546,-0.299 -0.018,1.123 -0.331,0.641 -1.204,1.108 -0.58,1.556 -0.313,0.52 -0.106,-0.747 -1.526,0.756 0.451,0.367 0.656,1.042 0.419,0.041 0.449,-0.212 0.401,-0.118 0.93,-0.05 1.276,-0.258 0.791,-0.688 1.126,-2.187 0.411,-0.224 0.583,0.177 0.565,0.393 0.356,0.41 0.154,0.573 0.1,2.04 0.082,0.225 0.426,0.821 0.003,0.196 -0.07,0.541 0.067,0.308 0.331,0.485 0.477,0.373 0.529,0.14 0.471,-0.22 0.246,0.684 0.389,0.323 0.456,0.286 0.44,0.56 0.55,-0.684 0.486,0.522 0.477,0.936 0.525,0.55 0.614,-0.516 0.559,0.205 0.426,0.622 0.21,0.709 -0.046,0.295 -0.128,0.277 -0.109,0.311 0.027,0.423 0.204,0.425 0.285,0.24 0.298,0.173 0.252,0.23 0.368,0.066 0.091,0.205 -0.225,0.506 -0.322,0.373 -0.249,0.062 -0.282,-0.024 -0.42,0.118 -0.186,0.161 -0.124,0.224 -0.161,0.23 -0.295,0.186 -0.41,0.069 -1.376,-0.069 0.501,0.7 1.501,0.484 0.55,0.643 0.565,-0.397 1.218,-1.715 0.256,0.285 0.276,-0.285 0.039,0.739 -0.285,0.827 -0.552,0.646 -0.751,0.161 0.146,0.385 0.233,0.262 0.241,0.204 0.164,0.187 0.38,0.168 0.109,0.099 -0.049,0.121 -0.128,0.233 -0.066,0.273 0.115,0.28 1.118,1.23 0.654,0.385 0.674,-0.155 0.383,-0.274 1.029,-1.186 0.249,-0.54 0.006,-1.1 0.25,-0.454 0.736,-0.969 0.096,-0.929 -0.103,-0.988 0.152,-1.14 0.665,-1.415 0.082,-0.568 -0.218,-0.019 -1.41,1.585 -0.346,0.068 -0.277,-0.329 -0.255,-0.438 -0.277,-0.239 -0.507,0.127 -0.419,0.407 -0.277,0.541 -0.091,0.51 -0.397,-0.19 -0.295,-0.302 -0.198,-0.373 -0.109,-0.435 0.452,-0.23 -0.106,-0.45 -0.623,-1.147 0.565,0.012 0.769,-0.115 0.683,-0.233 0.301,-0.327 -0.127,-0.251 -0.538,-0.46 -0.101,-0.212 0.065,-0.329 0.127,-0.349 0.191,-0.133 0.256,0.289 0.398,0.684 0.303,0.161 0.301,-0.267 0.399,-0.578 -0.052,-0.196 -0.164,-0.261 -0.022,-0.227 0.371,-0.1 0.744,-0.028 0.362,0.066 0.292,0.198 0.213,0.659 -0.53,1.076 0.177,0.51 0.681,0.383 0.425,-0.264 1.082,-1.705 0.106,-0.441 0.018,-0.444 0.119,-0.532 0.355,-0.591 0.383,-0.426 0.276,-0.513 0.031,-0.84 0.249,0.497 0.322,0.324 0.407,0.174 0.529,0.05 0.565,-0.1 0.23,-0.211 0.159,-0.293 0.643,-0.622 0.216,-0.479 0.022,-0.432 -0.286,-0.19 -0.519,0.125 -0.453,0.205 -0.413,0.037 -0.396,-0.367 0.912,-0.759 0.48,-0.603 0.426,-0.056 0.729,0.896 1.039,-2.347 0.236,-0.809 0.082,-1.014 -0.093,-0.495 -0.362,0.072 -0.3,0.423 -0.11,0.476 0.012,1.061 -0.225,-1.039 0.553,-2.179 -0.2,-0.847 -0.295,-0.398 -0.164,-0.405 -0.027,-0.423 0.109,-0.458 0.347,-0.644 0.263,0.043 0.283,0.268 0.407,0.05 0.559,-0.374 0.757,-0.673 -3.428,-3.525 -3.273,-3.357 -2.339,-3.359 2.806,-0.48 0.467,-2.88 -1.87,-3.361 -0.467,-6.725 -2.339,-2.403 2.339,-7.694 -1.871,-7.702 -0.936,-2.889 -0.468,-3.372 -3.741,-0.964 -1.871,-6.267 -3.118,-3.403 -0.182,0.028 -1.979,1.126 -0.228,0.09 -0.231,0.069 -0.689,0.098 -0.243,0.076 -0.226,0.121 -0.411,0.281 -0.267,0.105 -0.249,0.012 -0.544,-0.237 -0.441,-0.089 -0.185,-0.078 -0.162,-0.102 -0.139,-0.127 -0.98,-1.421 -0.138,-0.127 -0.168,-0.096 -0.759,-0.296 -0.963,-0.627 -0.266,-0.269 -0.098,-0.161 -0.133,-0.153 -0.156,-0.118 -0.243,-0.027 -0.139,0.101 -0.093,0.175 -0.075,0.472 -0.105,0.209 -0.806,1.228 -0.249,0.181 -0.243,0.053 -0.173,-0.083 -0.296,-0.235 -0.179,-0.078 -0.226,-0.025 h -0.459 l -0.214,-0.04 -0.568,-0.223 -0.202,-0.054 -0.214,-0.03 -0.226,0.014 -0.193,0.07 -0.201,0.109 -2.324,1.817 -0.191,0.119 -1.181,0.392 -0.436,0.207 -0.225,0.175 -1.407,1.602 -0.416,0.326 -0.332,0.137 -0.192,-0.059 -0.174,-0.098 -0.15,-0.107 -0.428,-0.37 -0.318,-0.211 -1.068,-0.515 -0.601,-0.197 -0.916,-0.134 -0.573,-0.22 -0.208,-0.054 -0.36,0.044 -0.457,0.129 -0.887,0.447 -0.452,0.309 -0.654,0.586 -0.202,0.144 -1.432,0.79 -0.231,0.178 -0.945,1.283 -0.469,0.517 -0.215,0.07 -0.174,-0.046 -0.133,-0.127 -0.231,-0.296 -0.196,-0.108 -0.255,-0.052 -0.443,0.07 -0.219,0.137 -0.139,0.183 -0.046,0.197 -0.041,0.298 v 0.446 l 0.18,0.882 0.081,0.183 0.109,0.157 0.9,0.692 0.445,0.618 0.093,0.167 0.607,0.724 0.215,0.318 0.089,0.177 0.069,0.216 0.012,0.237 -0.093,0.31 -0.174,0.107 -0.193,-0.002 -0.185,-0.075 -0.353,-0.181 -1.244,-0.893 -1.45,-0.657 -0.323,-0.203 -0.72,-0.61 -0.156,-0.106 -1.449,-0.662 -0.15,-0.113 -0.105,-0.143 -0.034,-0.199 0.04,-0.191 0.129,-0.388 0.047,-0.21 0.004,-0.215 -0.039,-0.177 -0.066,-0.117 -0.038,-0.06 -0.152,-0.151 -0.146,-0.096 -0.179,-0.083 -0.834,-0.227 -0.109,-0.129 v -0.197 l 0.4,-0.591 0.028,-0.206 -0.081,-0.149 -0.289,-0.261 -0.128,-0.092 -0.272,-0.244 -0.011,-0.01 z"
         style="fill:none;stroke:#000000;stroke-width:0.5;stroke-linecap:round;stroke-linejoin:round;stroke-miterlimit:4;stroke-dasharray:none;stroke-opacity:1"
         id="path22"
         inkscape:connector-curvature="0" /></g><g
       id="sava"
       transform="translate(503.4922,542.0684)"
       inkscape:label="sava"><path
         d="M 0,0 0.665,-0.772 0.95,-1.436 1.035,-1.924 1.403,-2.744 1.485,-3.158 1.388,-3.65 0.908,-4.491 0.72,-4.987 l 0.334,0.178 0.331,0.068 0.313,-0.05 0.291,-0.196 0.226,0.427 0.246,0.324 0.209,0.349 0.191,1.053 0.274,0.334 0.41,0.071 L 4.056,-2.635 3.879,-3.015 3.776,-3.158 4.283,-3.289 4.785,-3.538 5.231,-3.862 6.161,-4.734 6.325,-4.987 6.161,-5.956 6.213,-6.305 6.689,-7.321 7.039,-7.72 7.51,-7.885 8.023,-7.851 8.54,-7.882 8.896,-8.184 8.923,-8.954 8.658,-9.16 8.242,-9.278 8.103,-9.565 l 0.541,-0.676 0.503,-0.281 0.505,-0.165 0.389,-0.331 0.151,-0.779 0.199,-0.555 0.859,-1.032 0.197,-0.374 0.074,-2.055 -0.329,-3.089 0.037,-0.584 0.179,-0.777 0.039,-0.612 0.143,-0.483 1.015,-1.495 0.116,-0.668 -0.134,-1.643 0.158,-0.568 0.507,-0.299 0.453,0.137 0.413,0.212 0.389,-0.05 0.328,-0.553 -0.042,-0.671 -0.286,-1.287 0.076,-1.03 0.538,-2.25 0.428,-1.043 0.164,-0.206 0.447,-0.354 0.154,-0.206 0.052,-0.3 -0.066,-0.694 0.014,-0.319 0.147,-0.797 0.109,-0.272 0.094,-0.146 0.125,-0.082 0.146,-0.05 0.155,-0.012 0.224,-0.057 0.037,-0.156 -0.006,-0.209 0.118,-0.222 0.082,-0.432 -0.301,-1.307 0.219,-0.619 0.283,-0.432 0.862,-1.81 0.334,-1.267 0.396,-7.668 0.747,-2.859 0.103,-1.108 -0.036,-1.37 -0.346,-1.074 -0.104,-0.693 -0.052,-1.357 0.088,-0.799 0.256,-0.451 0.933,-0.865 0.629,-1.154 0.027,-1.104 -0.465,-2.96 -0.358,-1.192 -0.088,-0.599 0.063,-0.675 0.468,-1.839 0.274,-4.275 1.017,-2.101 0.107,-1.404 -0.323,-1.244 -0.841,-0.48 0.343,-0.471 0.997,-0.513 0.444,-0.336 0.291,-0.499 0.24,-0.679 0.447,-2.465 2.67,-5.949 0.684,-1.057 1.811,-2.228 0.376,-0.623 0.311,-1.31 0.394,-0.403 0.49,-0.283 0.464,-0.359 0.501,-0.945 0.311,-1.259 0.209,-2.482 -0.036,-0.233 -0.219,-0.614 -0.355,-0.602 -0.016,-0.268 0.085,-0.274 0.055,-0.388 -0.048,-0.274 -0.359,-0.926 -0.073,-0.388 0.073,-0.381 0.1,-0.338 0.027,-0.242 -0.158,-0.303 -0.452,-0.476 -0.155,-0.255 -0.255,-1.349 -0.665,-1.937 -0.073,-0.715 -0.241,-1.041 -3.317,-6.334 -0.292,-1.111 0.377,-0.224 -0.243,-0.515 -2.701,-3.525 -0.854,-2.18 -0.426,-0.493 -0.601,-0.158 -0.595,0.086 -0.568,-0.02 -0.55,-0.439 -0.754,1.915 -0.638,0.619 -0.087,-0.009 -0.241,0.201 -1.454,4.527 -0.087,0.713 -0.069,0.297 -0.14,0.317 -0.341,0.499 -0.203,0.379 -0.202,0.549 -0.133,0.615 -0.136,1.207 -0.492,1.556 -0.607,1.473 -0.046,0.292 0.006,0.251 0.376,1.496 0.017,0.234 -0.035,0.981 0.029,0.235 0.052,0.216 0.685,1.728 0.053,0.21 0.04,0.22 -0.006,0.238 -0.175,0.386 -1.337,2.055 -0.186,0.391 -0.035,0.224 -0.016,0.234 0.034,0.476 0.18,0.902 0.081,0.188 0.399,0.663 0.069,0.193 0.03,0.22 -0.168,0.372 -0.307,0.472 -0.778,0.91 -0.232,0.446 -0.063,0.314 0.237,0.29 0.135,0.126 0.128,0.106 0.231,0.138 0.961,0.416 0.162,0.1 0.151,0.118 0.121,0.139 0.071,0.179 -0.024,0.215 -0.105,0.23 -2.479,3.244 -0.706,1.426 -0.261,0.278 -0.145,0.118 -0.19,0.09 -0.214,0.056 -0.35,-0.056 -0.225,-0.088 -0.556,-0.312 -0.197,-0.071 -0.416,0.011 -1.831,0.354 -0.562,0.052 -0.389,-0.022 -0.18,-0.09 -3.046,-1.235 -0.203,-0.058 -0.353,0.202 -0.442,0.444 -0.833,1.175 -0.324,0.571 -0.743,0.887 -2.242,1.984 -0.387,1.328 -0.255,0.497 -1.814,2.432 -0.341,0.213 -0.336,0.15 -0.388,0.265 -0.384,0.361 -0.18,0.264 -0.126,0.239 -0.724,1.9 -0.052,0.203 0.018,0.186 0.109,0.389 0.029,0.209 -0.023,0.201 -0.052,0.194 -1.35,3.079 -0.232,0.385 -0.348,0.393 -0.688,0.97 -0.639,0.557 -0.103,0.215 -0.006,0.215 0.069,0.192 0.193,0.34 0.116,0.154 0.277,0.245 0.463,0.335 0.122,0.177 0.075,0.224 -0.011,0.368 -0.087,0.22 -0.115,0.187 -0.55,0.52 -0.148,0.113 -0.55,0.259 -0.161,0.104 -0.411,0.375 -0.162,0.107 -0.371,0.168 -0.399,0.133 -0.179,0.088 -0.772,0.681 -0.695,0.906 -0.469,0.917 -0.14,0.199 -0.139,0.131 -1.088,0.773 -1.31,1.35 -1.031,0.748 -0.168,0.265 -0.196,0.424 -0.205,0.243 -0.301,0.263 -0.174,0.185 -0.115,0.197 -0.457,1.513 -0.29,0.637 -0.231,0.181 -0.203,0.047 -0.173,-0.053 3.118,3.403 1.871,6.267 3.741,0.963 0.468,3.373 0.935,2.889 1.872,7.701 -2.339,7.695 2.339,2.403 0.467,6.725 1.87,3.361 -0.467,2.88 -2.806,0.48 2.339,3.359 3.273,3.357 z"
         style="fill:none;stroke:#000000;stroke-width:0.5;stroke-linecap:round;stroke-linejoin:round;stroke-miterlimit:4;stroke-dasharray:none;stroke-opacity:1"
         id="path26"
         inkscape:connector-curvature="0" /></g><g
       id="analajirofo"
       transform="translate(515.4502,383.5649)"
       inkscape:label="analajirofo"><path
         d="M 0,0 0.137,0.562 0.2,1.174 0.328,1.777 0.647,2.285 1.103,2.646 2.549,3.483 2.391,2.542 1.042,-0.273 0.058,-3.288 l -1.827,-4.017 -1.33,-1.801 -1.057,-2.308 -0.684,-0.867 -0.328,1.064 0.191,1.011 0.897,1.948 0.161,0.533 0.082,0.505 0.036,1.093 0.121,0.667 0.311,0.521 0.845,0.968 z m 6.535,33.474 -0.902,-0.123 -1.838,1.611 -0.693,0.837 -0.277,1.153 -0.179,1.989 -0.076,0.284 -0.446,0.18 -0.529,0.423 -0.487,0.511 -0.321,0.43 -0.249,0.517 -0.195,0.612 -0.106,0.651 0.018,0.624 0.204,0.635 0.243,0.514 0.045,0.508 -0.364,0.59 -0.237,0.224 -0.216,0.117 -0.24,0.05 -0.328,0.013 -0.174,0.119 -1.063,1.407 -0.094,0.499 0.203,1.198 0.019,0.681 -0.295,1.96 0.052,0.234 0.134,0.227 0.048,0.265 -0.234,0.334 -0.182,0.063 -0.696,0.069 -0.978,-0.51 -1.361,-0.152 h -2.413 l -1.215,-0.416 -0.833,-0.766 -2.129,-3.027 0.036,-1.003 0.805,-2.217 0.043,-0.546 -0.043,-0.539 -0.388,-1.06 h -0.097 l 0.246,-0.483 0.434,-0.417 0.414,-0.508 0.3,-1.301 0.529,-1.275 0.255,-1.958 0.374,-1.209 0.552,-1.043 0.098,-0.445 -0.122,-0.654 -0.274,-0.654 -1.138,-2.023 -0.338,-1.119 -0.018,-1.296 0.249,-1.29 0.48,-1.094 0.975,-0.949 2.434,-0.879 1.075,-0.693 0.858,-1.253 0.154,-1.117 -0.793,-3.64 -0.063,-1.513 0.203,-1.35 0.671,-0.582 0.383,-0.251 0.094,-0.588 -0.145,-1.502 -0.159,-0.561 -0.036,-0.298 V 9.355 L -3.971,8.858 -5.942,5.405 -7.021,4.143 -8.687,2.792 -8.619,1.003 -8.353,0.181 -7.784,-0.667 -7,-1.399 l 0.805,-0.423 0.887,-0.146 0.996,0.102 -1.129,-0.638 -1.185,-0.454 -2.187,-0.33 -0.93,-0.511 -1.878,-0.172 -0.747,-0.162 -0.602,-0.425 -0.474,-0.604 -2.492,-5.06 -1.737,-4.918 -1.908,-4.545 -0.371,-2.788 0.17,-0.589 1.131,-1.837 0.701,-3.777 -5.387,-0.527 -1.402,-2.943 v -2.945 l -4.678,-1.472 -5.612,-0.492 -5.145,-0.982 -0.935,3.437 -3.742,1.963 -0.935,1.963 3.274,2.452 1.97,5.004 -2.437,2.838 1.87,4.407 -0.935,6.362 2.338,5.867 v 3.421 l 0.917,4.26 1.837,0.331 0.266,0.096 0.332,0.178 0.139,0.181 0.012,0.201 -0.082,0.165 -0.355,0.451 -0.196,0.34 -0.041,0.238 0.006,0.266 0.127,0.374 0.181,0.252 0.224,0.231 0.356,0.294 0.306,0.328 0.156,0.268 0.388,0.938 0.475,0.805 0.186,0.441 0.097,0.362 -0.026,0.525 0.034,0.328 0.15,0.479 0.192,0.209 0.225,0.103 0.232,0.012 0.214,0.042 0.208,0.061 1.472,0.748 0.753,0.587 0.572,0.867 0.107,0.259 0.05,0.206 0.043,0.434 0.173,0.44 2.219,4.085 0.173,0.446 0.081,0.358 -0.034,0.221 -0.059,0.215 -0.231,0.544 -0.017,0.205 0.034,0.449 -0.011,0.23 -0.04,0.228 -0.081,0.182 -0.124,0.149 -0.157,0.112 -0.393,0.153 -0.428,0.1 -1.478,0.075 -1.158,0.19 -3.488,1.638 -0.15,0.114 -0.133,0.132 -0.064,0.239 0.046,0.334 0.522,1.227 0.335,1.361 0.011,0.09 0.372,1.136 0.267,0.556 0.22,0.299 0.921,0.991 0.526,0.714 0.488,0.968 0.093,0.339 0.028,0.267 -0.04,0.469 -0.446,2.222 -0.245,0.818 -0.317,0.744 -0.209,0.337 -0.463,0.606 -0.093,0.176 -0.058,0.208 -0.023,0.233 v 0.246 l 0.069,0.463 0.463,1.692 0.631,4.755 v 0.237 l -0.028,0.21 -0.064,0.192 -0.075,0.185 -0.075,0.242 -0.041,0.292 0.057,0.499 0.105,0.268 0.121,0.21 0.61,0.553 0.4,0.496 0.174,0.323 0.081,0.278 -0.024,0.184 -0.087,0.12 h -0.144 l -0.354,-0.112 -0.196,-0.008 -0.174,0.068 -0.164,0.1 -0.156,0.118 -0.168,0.078 -0.202,0.014 -0.382,-0.104 -0.227,-0.028 -0.243,0.006 -0.22,0.048 -0.196,0.072 -0.174,0.094 -0.15,0.116 -0.118,0.15 -0.179,0.349 -0.059,0.212 -0.04,0.222 -0.046,0.488 -0.064,0.202 -0.185,0.347 -0.07,0.252 v 0.32 l 0.099,0.526 0.144,0.252 0.174,0.168 0.429,0.106 0.963,0.122 0.422,0.113 0.214,0.036 h 0.226 l 0.424,-0.065 0.231,-0.002 0.221,0.038 0.202,0.06 1.054,0.544 0.811,0.253 0.36,0.168 0.168,0.154 0.168,0.191 0.214,0.305 0.168,0.188 0.172,0.148 0.332,0.206 0.186,0.082 0.196,0.066 0.221,0.042 0.237,0.012 0.481,-0.054 0.283,0.018 0.326,0.088 1.03,0.671 0.4,0.151 0.202,0.108 0.342,0.369 0.156,0.135 0.187,0.075 0.203,0.038 0.214,-0.018 0.613,-0.188 0.226,-0.022 0.254,0.06 0.284,0.221 0.165,0.212 0.115,0.208 0.138,0.395 0.03,0.234 0.011,0.246 -0.029,0.232 -0.057,0.21 -0.093,0.178 -0.216,0.308 -0.081,0.18 -0.029,0.231 v 0.276 l 0.029,0.334 0.115,0.192 0.17,0.104 0.209,0.012 0.19,-0.048 0.574,-0.222 0.451,-0.09 0.486,-0.018 0.269,0.054 0.243,0.108 0.312,0.21 0.151,0.214 0.103,0.226 0.087,0.717 -0.022,0.492 -0.035,0.224 -0.058,0.183 -0.104,0.256 -0.035,0.18 v 0.246 l 0.058,0.284 0.324,0.864 0.058,0.212 0.052,0.478 -0.023,0.479 -0.237,0.847 -0.012,0.264 0.006,0.299 0.093,0.417 0.133,0.204 0.185,0.086 0.173,-0.044 0.168,-0.09 0.858,-0.609 0.116,-0.064 0.163,-0.066 0.208,-0.053 0.225,-0.036 0.232,-0.009 0.249,0.104 0.243,0.214 0.656,0.95 0.139,0.126 0.162,0.108 0.18,0.084 0.352,0.102 0.278,-0.024 2.242,-1.985 0.743,-0.887 0.324,-0.571 0.833,-1.175 0.442,-0.443 0.353,-0.202 0.203,0.058 3.046,1.235 0.18,0.089 0.389,0.022 0.562,-0.052 1.831,-0.353 0.416,-0.012 0.197,0.072 0.556,0.311 0.225,0.088 0.35,0.056 0.214,-0.056 0.19,-0.09 0.145,-0.117 0.261,-0.278 L 0.599,65.645 3.078,62.401 3.183,62.172 3.207,61.956 3.136,61.778 3.015,61.638 2.864,61.52 2.702,61.42 1.741,61.004 1.51,60.866 1.382,60.76 1.247,60.634 1.01,60.344 1.073,60.031 1.305,59.584 2.083,58.675 2.39,58.203 2.558,57.831 2.528,57.611 2.459,57.417 2.06,56.755 1.979,56.566 1.799,55.665 1.765,55.188 1.781,54.954 1.816,54.73 2.002,54.34 3.339,52.285 3.514,51.898 3.52,51.66 3.479,51.44 3.427,51.23 2.742,49.502 2.69,49.286 2.661,49.052 2.696,48.071 2.679,47.836 2.303,46.34 2.297,46.09 2.343,45.797 2.95,44.325 3.442,42.768 3.578,41.562 3.711,40.946 3.913,40.397 4.116,40.019 4.457,39.52 4.597,39.203 4.666,38.906 4.753,38.192 6.207,33.666 6.448,33.465 Z"
         style="fill:none;stroke:#000000;stroke-width:0.5;stroke-linecap:round;stroke-linejoin:round;stroke-miterlimit:4;stroke-dasharray:none;stroke-opacity:1"
         id="path30"
         inkscape:connector-curvature="0" /></g><g
       id="atsinanana"
       transform="translate(497.5,354.8887)"
       inkscape:label="#g32"><path
         d="m 0,0 1.085,-5.849 0.207,-2.535 -0.444,-2.708 -1.309,-4.664 -1.82,-5.941 -0.049,-0.688 0.049,-0.677 0.152,-0.537 0.173,-0.285 0.416,-0.502 0.177,-0.287 0.085,-0.448 -0.226,-0.224 -0.379,-0.153 -0.374,-0.247 -1.137,-2.177 -0.929,-7.807 -0.261,-0.502 -0.708,-0.897 -0.276,-0.484 -0.894,-2.688 -2.193,-4.596 -1.942,-7.322 -2.901,-6.707 -1.364,-2.098 -3.4,-12.385 -4.713,-12.114 -1.272,-6.25 -0.085,-0.924 0.018,-1.48 -1.209,-3.588 -0.238,0.492 -0.459,0.646 -0.491,0.355 -0.338,-0.407 0.155,-0.459 0.909,-1.267 0.207,-0.602 -0.104,-0.511 -3.081,-6.467 -2.144,-5.791 -0.955,-2.963 -0.31,0.148 -3.071,0.848 -2.647,-0.023 -1.871,0.424 -0.29,0.14 -0.33,0.334 -0.127,0.279 -0.046,0.288 0.023,0.251 v 0.513 l -0.046,0.224 -0.157,0.393 -0.116,0.16 -0.184,0.167 -0.639,0.443 -0.215,0.201 -0.231,0.144 -0.238,0.072 -0.399,-0.035 -1.165,-0.312 -0.243,-0.027 -0.261,-0.006 -0.387,0.102 -0.452,0.192 -0.823,0.487 -0.654,0.487 -0.127,0.149 -0.788,1.398 -0.118,0.158 -0.138,0.132 -0.192,0.103 -0.231,0.057 -0.336,-0.012 -0.254,-0.045 -0.221,-0.08 -0.168,-0.112 -0.138,-0.129 -0.104,-0.161 -0.075,-0.177 v -0.208 l 0.063,-0.19 0.203,-0.336 0.057,-0.17 -0.034,-0.173 -0.237,-0.29 -0.111,-0.167 -0.077,-0.197 -0.073,-0.444 -0.077,-0.19 -0.376,-0.448 -0.105,-0.169 -0.127,-0.432 -0.035,-0.243 -0.063,-0.212 -1.142,-1.892 -0.128,-0.424 -0.034,-0.223 0.019,-0.228 0.05,-0.21 0.256,-0.546 0.006,-0.197 -0.075,-0.169 -0.129,-0.14 -0.174,-0.101 -0.202,-0.066 -0.237,-0.006 -0.33,0.142 -0.406,0.247 -0.719,0.591 -0.677,0.432 -0.203,0.041 -0.347,0.013 -0.457,-0.05 -0.442,-0.104 -0.197,-0.081 -0.498,-0.324 -0.423,-0.401 -0.173,-0.101 -0.208,-0.059 -0.244,-0.027 -0.249,0.002 -0.245,0.029 -0.463,0.098 -0.485,0.056 -0.243,-0.016 -0.232,-0.038 -0.209,-0.067 -0.185,-0.08 -0.673,-0.451 -0.197,-0.078 -0.22,-0.046 -0.977,-0.056 -0.443,-0.092 -0.243,0.006 -0.237,0.068 -0.243,0.15 -0.167,0.159 -0.128,0.177 -0.105,0.173 -0.109,0.156 -0.139,0.137 -0.342,0.214 -0.146,0.123 -0.394,0.43 -0.162,0.117 -0.18,0.099 -0.601,0.229 -0.145,0.124 -0.128,0.149 -0.231,0.591 -0.105,0.171 -0.134,0.142 -0.11,0.162 -0.087,0.348 -0.156,3.279 0.139,1.023 0.615,2.555 0.388,1.13 0.174,0.384 0.104,0.733 0.028,1.998 0.157,1.871 0.168,0.676 1.02,1.855 0.139,0.417 0.082,0.351 -0.006,1.383 0.063,0.295 0.087,0.233 0.208,0.344 0.117,0.156 0.277,0.273 0.637,0.461 0.569,0.522 0.254,0.294 1.158,1.974 5.242,1.032 2.807,1.988 2.806,-2.485 6.08,-0.497 1.403,8.941 h 3.273 l -1.403,7.441 6.548,1.983 0.468,5.945 3.274,0.99 v 7.423 l -3.274,8.895 -1.87,5.925 v 7.89 l 1.402,5.42 4.677,0.985 4.677,2.953 -0.467,3.937 -3.275,3.934 -2.338,2.949 2.338,0.983 h 4.677 l 1.403,3.93 5.145,0.982 5.612,0.491 4.678,1.472 v 2.945 l 1.402,2.944 z"
         style="fill:none;stroke:#000000;stroke-width:0.5;stroke-linecap:round;stroke-linejoin:round;stroke-miterlimit:4;stroke-dasharray:none;stroke-opacity:1"
         id="path34"
         inkscape:connector-curvature="0" /></g><g
       id="vatovavy-fitovinany"
       transform="translate(465.4385,240.1504)"
       inkscape:label="#g36"><path
         d="m 0,0 -2.015,-6.27 -3.727,-14.178 -0.396,-0.645 -0.498,-0.628 -0.309,-0.604 0.158,-0.576 0.488,0.507 0.278,-0.146 0.09,-0.53 -0.067,-0.652 -0.242,-0.592 -0.663,-1.185 -0.14,-0.693 -0.127,-1.369 -0.35,-1.357 -1.352,-3.2 -0.133,-0.548 -0.073,-1.219 -0.61,-3.434 -0.548,-1.449 -0.519,-0.995 -4.716,-15.319 -4.749,-11.11 -4.748,-11.131 -0.516,-2.662 -1.231,-2.705 -0.678,-4.627 -3.926,3.336 h -4.677 l -4.677,2.024 -1.403,4.554 -3.274,2.021 -1.403,-1.516 -3.273,0.505 -6.08,3.034 -1.872,3.031 4.209,2.524 5.613,3.029 -1.404,3.026 1.404,3.024 1.403,6.045 2.339,11.57 -1.403,3.516 -0.936,3.012 1.871,4.517 1.403,7.517 0.467,6.509 1.871,2.001 2.807,0.5 0.468,2.501 0.467,5.497 2.806,0.999 3.416,3.299 0.238,-0.068 0.243,-0.005 0.442,0.091 0.978,0.056 0.219,0.046 0.198,0.078 0.672,0.451 0.186,0.08 0.209,0.068 0.231,0.037 0.244,0.016 0.485,-0.055 0.463,-0.099 0.245,-0.028 0.249,-0.003 0.243,0.027 0.208,0.06 0.174,0.1 0.423,0.402 0.498,0.323 0.196,0.081 0.443,0.105 0.457,0.049 0.346,-0.012 0.203,-0.041 0.677,-0.433 0.72,-0.591 0.405,-0.247 0.33,-0.142 0.238,0.006 0.202,0.067 0.174,0.1 0.128,0.14 0.076,0.169 -0.006,0.197 -0.256,0.546 -0.051,0.21 -0.018,0.229 0.034,0.222 0.128,0.424 1.141,1.893 0.064,0.212 0.035,0.243 0.127,0.431 0.104,0.169 0.376,0.449 0.077,0.189 0.074,0.444 0.077,0.198 0.11,0.167 0.238,0.29 0.034,0.172 -0.058,0.17 -0.202,0.336 -0.064,0.19 v 0.209 l 0.076,0.177 0.103,0.161 0.139,0.129 0.168,0.111 0.221,0.08 0.253,0.045 0.336,0.013 0.232,-0.058 0.191,-0.103 0.139,-0.131 0.117,-0.159 0.788,-1.398 0.127,-0.148 0.654,-0.488 0.824,-0.487 0.452,-0.191 0.387,-0.103 0.26,0.006 0.243,0.027 1.165,0.313 0.4,0.034 0.237,-0.071 0.232,-0.145 0.214,-0.201 0.639,-0.443 0.185,-0.167 0.116,-0.16 0.156,-0.392 0.046,-0.225 V 2.689 L -8.692,2.438 -8.646,2.15 -8.52,1.871 l 0.331,-0.334 0.29,-0.14 1.871,-0.423 2.646,0.022 3.071,-0.848 z"
         style="fill:none;stroke:#000000;stroke-width:0.5;stroke-linecap:round;stroke-linejoin:round;stroke-miterlimit:4;stroke-dasharray:none;stroke-opacity:1"
         id="path38"
         inkscape:connector-curvature="0" /></g><g
       id="atsimo-atsinanana"
       transform="translate(438.0459,152.833)"
       inkscape:label="#g40"><path
         d="m 0,0 -0.891,-6.086 -0.719,-2.451 -0.207,-3.825 -1.264,-4.507 -1.403,-3.976 -0.909,-5.903 -4.426,-13.635 -0.432,0.561 -0.213,0.467 -0.213,0.089 -0.413,-0.56 -0.391,-0.888 0.258,-0.239 0.614,-0.06 0.662,-0.341 0.152,-1.058 -1.92,-8.656 -2.03,-5.488 -0.656,-1.201 -0.261,-0.256 -0.593,-0.389 -0.191,-0.169 h -0.079 l -0.389,-0.144 -0.043,-0.007 -0.246,-0.209 0.076,-0.12 0.161,-0.13 0.009,-0.225 -0.009,-0.107 -0.246,-1.035 -0.65,-1.358 -0.104,-0.283 -0.066,0.027 -1.871,1.507 -4.785,2.649 -0.968,0.672 -0.522,0.271 -2.658,0.762 -0.546,-0.065 -0.255,-0.254 -0.011,-1.054 0.231,-1.242 0.006,-0.336 -0.069,-0.302 -0.214,-0.27 -0.36,-0.231 -1.018,-0.308 -0.505,0.092 -1.094,0.381 -0.393,-0.114 -0.263,-0.302 -0.109,-0.424 -0.007,-0.458 0.077,-0.441 0.116,-0.435 0.324,-0.781 0.59,-1.085 0.146,-0.384 0.04,-0.425 -0.105,-0.405 -0.208,-0.346 -0.504,-0.622 -0.208,-0.36 -0.332,-0.793 -0.179,-0.33 -0.278,-0.279 -0.301,-0.204 -0.636,-0.343 -1.073,-0.345 -0.533,-0.082 -0.677,-0.006 -0.419,0.186 -0.283,0.314 -0.134,0.393 -0.063,0.434 0.018,0.711 0.168,0.863 0.302,0.82 0.081,0.415 -0.046,0.423 -0.152,0.374 -1.111,1.683 -0.261,0.299 -0.312,0.301 -0.385,0.273 -0.712,0.243 -2.073,0.061 -0.637,0.161 -0.347,0.326 -0.249,1.347 -0.141,0.406 -0.423,0.651 -0.116,0.355 0.111,0.752 -0.035,0.165 -0.145,0.254 -0.248,0.252 -1.357,0.891 -2.809,1.039 -2.103,0.517 -0.388,0.174 -0.353,0.212 -0.285,0.272 -0.212,0.349 -0.349,0.776 -0.232,0.333 -0.301,0.256 -0.81,0.527 -1.385,1.15 -0.353,0.52 -0.168,0.416 0.028,0.341 0.099,0.399 0.613,1.625 0.793,1.452 0.506,1.193 0.202,0.353 0.521,0.599 7.056,-1.975 3.273,0.512 2.807,3.064 0.935,7.65 -0.935,8.658 -0.936,6.104 0.468,2.541 3.274,0.507 4.209,-2.032 3.742,-2.542 h 2.806 v 3.051 5.079 l -0.468,6.089 -3.274,6.59 -2.339,9.11 -1.871,3.539 2.807,4.042 1.871,-3.031 6.08,-3.033 3.274,-0.506 1.403,1.517 3.273,-2.022 1.404,-4.554 4.676,-2.024 h 4.677 z"
         style="fill:none;stroke:#000000;stroke-width:0.5;stroke-linecap:round;stroke-linejoin:round;stroke-miterlimit:4;stroke-dasharray:none;stroke-opacity:1"
         id="path42"
         inkscape:connector-curvature="0" /></g><g
       id="anosy"
       transform="translate(421.0801,90.6436)"
       inkscape:label="#g44"><path
         d="m 0,0 -2.139,-5.948 -0.288,-0.264 -0.453,0.15 -0.796,0.38 -0.182,-0.247 0.51,-2.239 -0.975,-6.626 -3.132,-7.982 -0.933,-1.485 -0.106,-0.612 0.024,-1.278 -0.264,-0.649 -1.914,-1.472 -0.52,-1.269 0.319,-2.649 -0.422,-1.033 -0.383,0.466 -0.255,0.547 -0.125,0.609 -0.003,0.65 -0.328,-0.583 -0.033,-0.6 0.087,-0.639 0.019,-0.707 -0.158,-0.804 -0.274,-0.339 -1.096,-0.426 -0.635,-0.405 -1.052,-0.985 -1.792,-2.194 -0.368,-0.218 -0.124,0.178 -0.386,0.926 -0.434,0.063 -0.11,-0.044 -0.03,-0.12 -2.182,-1.59 -0.817,-0.772 -0.401,-0.281 -1.091,-0.43 -0.425,-0.275 -0.526,-0.739 -0.383,-0.318 -0.3,0.02 -0.371,0.144 -0.386,-0.003 -0.365,-0.443 -0.355,-0.262 -2.558,-0.708 -0.583,0.02 -1.243,0.363 -3.828,0.526 -4.317,-0.124 -5.56,-1.377 -3.319,5.857 -7.483,4.128 v 6.186 l -0.935,4.12 1.403,5.66 v 4.626 l -4.209,3.596 -1.871,4.618 1.871,6.153 -2.807,2.561 -5.145,1.536 -4.366,-0.217 -1.48,5.094 1.871,7.157 -2.338,5.105 -7.016,-0.511 -0.101,4.917 4.503,7.418 -1.393,7.226 0.009,0.007 0.208,0.437 0.548,0.827 -0.027,3.394 0.785,4.913 0.589,0.772 7.315,4.228 7.127,2.924 1.81,0.383 0.528,0.038 2.406,-0.233 1.6,0.051 0.878,-0.251 2.756,-1.715 0.843,-0.8 0.62,0.143 0.824,-0.678 2.687,-1.719 0.209,-0.252 0.717,-1.078 2.115,-4.75 0.127,-0.4 0.355,-0.664 0.092,-0.234 0.087,-0.455 0.07,-0.229 0.035,-0.073 0.7,-1.075 0.104,-0.252 0.058,-0.218 0.318,-0.673 0.413,-0.648 0.637,-1.26 0.092,-0.252 0.133,-0.539 0.151,-0.221 0.214,-0.203 2.653,-1.441 0.355,-0.252 0.272,-0.355 0.168,-0.59 0.214,-1.919 -0.017,-0.35 -0.122,-0.37 -0.377,-0.716 -0.115,-0.404 v -0.43 l 0.11,-0.402 0.156,-0.394 0.214,-0.832 0.006,-0.416 -0.11,-0.389 -0.174,-0.357 -0.121,-0.368 -0.185,-0.759 -0.209,-0.322 -0.302,-0.254 -0.684,-0.425 -0.254,-0.258 -0.11,-0.348 0.081,-0.414 0.191,-0.517 0.156,-0.863 0.174,-0.422 0.717,-1.052 0.518,-0.613 0.289,-0.46 0.561,-1.482 0.353,-0.692 0.111,-0.529 0.051,-0.421 -0.023,-0.318 -0.064,-0.348 -0.081,-0.198 -0.191,-0.267 -0.26,-0.24 -0.521,-0.598 -0.202,-0.354 -0.506,-1.192 -0.793,-1.452 -0.613,-1.625 -0.099,-0.4 -0.029,-0.341 0.168,-0.416 0.353,-0.52 1.386,-1.149 0.81,-0.528 0.301,-0.256 0.231,-0.333 0.35,-0.776 0.212,-0.349 0.285,-0.271 0.353,-0.212 0.388,-0.175 2.103,-0.516 2.809,-1.04 1.356,-0.89 0.249,-0.252 0.145,-0.255 0.035,-0.165 -0.111,-0.752 0.116,-0.354 0.423,-0.652 0.141,-0.405 0.249,-1.348 0.347,-0.326 0.636,-0.16 2.074,-0.062 0.712,-0.243 0.384,-0.272 0.313,-0.302 0.261,-0.299 1.111,-1.682 0.152,-0.374 0.046,-0.423 -0.081,-0.415 -0.303,-0.821 -0.168,-0.863 -0.017,-0.711 0.063,-0.433 0.134,-0.394 0.283,-0.314 0.419,-0.186 0.677,0.007 0.533,0.082 1.072,0.345 0.637,0.342 0.301,0.204 0.278,0.28 0.179,0.33 0.332,0.793 0.208,0.359 0.504,0.622 0.208,0.347 0.104,0.404 -0.04,0.425 -0.145,0.385 -0.59,1.085 -0.324,0.78 -0.116,0.436 -0.078,0.441 0.008,0.457 0.109,0.425 0.262,0.302 0.394,0.114 1.094,-0.381 0.505,-0.093 1.018,0.309 0.359,0.23 0.214,0.271 0.07,0.302 -0.006,0.335 -0.232,1.243 0.012,1.053 0.255,0.254 0.546,0.066 2.658,-0.763 0.522,-0.271 0.967,-0.671 4.786,-2.65 1.871,-1.507 z"
         style="fill:none;stroke:#000000;stroke-width:0.5;stroke-linecap:round;stroke-linejoin:round;stroke-miterlimit:4;stroke-dasharray:none;stroke-opacity:1"
         id="path46"
         inkscape:connector-curvature="0" /></g><g
       id="androy"
       transform="translate(376.638,46.5474)"
       inkscape:label="#g48"><path
         d="m 0,0 -7.389,-3.284 -4.691,-2.46 -5.223,-2.926 -3.739,-3.566 -0.711,-0.523 -0.784,-0.322 -0.836,-0.071 -1.88,-1.798 -2.577,-0.566 -10.621,-0.464 -0.571,-0.132 -0.547,-0.26 -0.566,-0.175 -0.637,0.132 -0.353,0.465 -0.353,1.586 -0.315,0.674 -1.14,0.881 -3.983,1.504 -1.118,0.828 -0.486,0.566 -0.465,1.255 -0.629,0.582 -2.761,2.053 -2.516,1.224 -1.477,0.443 1.837,6.352 6.548,5.681 5.144,5.158 1.403,6.183 -0.935,7.204 v 5.139 l 1.871,4.622 0.935,7.693 1.871,5.635 2.339,3.07 7.015,1.535 1.48,-5.095 4.366,0.218 5.144,-1.536 2.807,-2.562 -1.871,-6.152 1.871,-4.618 4.209,-3.596 v -4.626 l -1.403,-5.66 0.935,-4.12 V 9.984 l 7.484,-4.128 z"
         style="fill:none;stroke:#000000;stroke-width:0.5;stroke-linecap:round;stroke-linejoin:round;stroke-miterlimit:4;stroke-dasharray:none;stroke-opacity:1"
         id="path50"
         inkscape:connector-curvature="0" /></g><g
       id="atsimo-andrefana"
       transform="translate(320.27,42.1934)"
       inkscape:label="#g52"><path
         d="m 0,0 -3.947,0.575 -3.925,0.219 -5.505,1.142 -0.687,0.382 -0.556,1.593 -1.212,1.383 -0.273,0.903 0.723,-0.305 0.65,-0.584 1.151,-1.35 0.748,-0.541 0.628,-0.023 0.32,0.45 -0.168,0.923 -0.595,-0.118 -0.51,0.299 -0.954,0.967 -0.617,0.413 -0.568,0.252 -0.602,0.124 -0.717,0.033 -1.312,0.544 -2.255,2.483 -1.324,0.68 -1.188,-0.009 -0.423,0.11 -2.977,2.022 -0.428,0.895 -0.241,3.236 -0.37,1.367 -2.707,3.736 -0.38,1.342 0.362,3.678 -0.362,1.37 -0.377,0.696 -1.598,1.763 -0.182,0.147 -0.188,0.181 -0.201,0.321 -0.103,0.367 -0.116,0.842 -0.164,0.333 -1.239,1.089 -2.595,1.785 -1.136,1.212 -1.264,2.922 -0.62,6.125 0.498,7.036 -0.653,3.956 0.073,0.388 0.328,0.755 0.088,0.403 -0.042,0.467 -0.447,1.207 -0.313,1.624 -0.243,0.737 -0.465,0.726 0.532,0.84 -0.076,2.887 0.173,1.287 0.826,0.796 2.51,1.114 0.647,0.896 -0.07,0.659 -0.504,1.063 0.064,0.756 0.574,0.55 0.17,0.278 0.231,0.683 0.019,0.338 -0.122,0.397 -0.401,0.563 -0.997,0.838 -0.714,0.983 -1.586,1.529 -0.255,0.153 -0.237,0.036 -0.252,0.069 -0.298,0.272 -0.091,0.224 -0.143,0.913 -0.392,1.416 -0.157,3.644 -0.493,3.034 -0.51,1.695 -1.018,1.119 -2.552,1.894 -0.404,0.588 -0.614,1.274 -0.532,0.507 -0.683,0.509 -1.282,1.438 -0.778,1.227 -0.426,0.877 -0.167,0.547 -0.2,1.668 -0.471,1.101 -0.195,2.114 -0.443,1.142 -0.222,1.44 -0.182,0.348 -0.508,0.685 -0.203,0.362 -0.255,0.942 -0.019,0.947 0.146,1.862 -0.385,3.722 -0.523,1.945 -0.887,1.833 -0.009,0.401 0.033,0.411 -0.012,0.384 -0.249,0.995 -0.411,0.935 0.095,0.847 0.799,0.624 1.018,0.095 0.787,-0.745 0.246,0.63 -0.064,0.686 -0.149,0.712 -0.033,0.728 -1.28,0.02 -0.51,1.614 -0.015,3.646 0.082,0.445 0.364,0.804 0.082,0.412 v 0.96 l 0.064,0.406 0.146,0.191 0.173,0.134 0.128,0.219 0.073,0.02 0.161,0.059 0.17,0.098 0.106,0.125 -0.276,1.094 0.058,0.537 0.164,0.484 0.252,0.459 0.316,0.422 0.437,-0.579 0.055,-0.682 -0.24,-1.46 0.763,1.087 0.146,1.886 -0.061,2.036 0.173,1.558 0.416,0.745 2.5,3.028 0.641,0.507 0.717,0.099 0.821,-0.492 v 10.711 l 0.282,0.998 0.784,1.85 0.234,0.988 0.292,-0.684 0.298,-0.007 0.707,0.691 v -0.251 l 0.553,-0.581 1.334,-0.899 0.432,-0.438 0.17,-0.509 0.313,-2.079 0.364,-0.525 1.592,-0.904 0.365,-0.509 0.164,-0.627 0.377,-0.706 0.729,-0.983 1.036,-0.777 0.261,-0.373 0.107,-0.394 0.042,-0.844 0.085,-0.402 0.681,-1.32 0.246,-0.635 0.094,-0.927 0.276,-0.916 1.231,-1.017 0.276,-0.55 0.125,-0.529 0.292,-0.704 0.604,-1.113 0.903,-0.981 0.191,-0.393 0.155,-0.903 0.164,-0.353 0.447,-0.344 0.47,-0.118 0.493,-0.059 0.513,-0.141 0.259,-0.173 0.434,-0.443 0.328,-0.209 0.829,-0.19 0.775,0.125 1.349,0.34 0.605,0.239 0.917,1.28 0.647,0.625 1.134,0.678 1.364,0.55 1.391,0.078 1.231,-0.727 0.601,-1.168 0.347,-0.023 0.732,0.779 0.331,0.603 0.164,0.039 0.377,-0.23 0.207,-0.294 0.324,-1.08 1.122,0.697 1.23,0.324 2.871,0.105 1.878,0.903 1.34,0.34 0.845,0.655 0.871,0.461 3.469,5.416 v 10.053 l 1.871,4.519 5.145,-0.502 2.338,-2.51 4.21,-0.502 2.806,3.012 3.742,4.517 7.95,3.007 4.677,5.011 3.742,1.002 4.396,0.721 -0.279,-3.626 -0.047,-0.202 -0.062,-0.207 -0.088,-0.202 -0.492,-0.918 -0.244,-0.332 -0.428,-0.396 -0.116,-0.146 -0.063,-0.198 -0.012,-0.239 0.712,-4.057 0.035,-0.49 -0.104,-1.002 -0.064,-0.22 -0.092,-0.192 -0.105,-0.174 -0.144,-0.13 -0.185,-0.093 -0.215,-0.06 -0.72,-0.077 -0.19,-0.084 -0.174,-0.098 -0.191,-0.087 -0.428,-0.089 -0.498,-0.31 -0.372,-0.162 -0.145,-0.13 -0.104,-0.185 -0.128,-0.153 -0.202,-0.076 -0.22,-0.048 -0.197,-0.076 -0.151,-0.129 -0.115,-0.157 -0.093,-0.187 -0.15,-0.414 -0.11,-0.172 -0.151,-0.114 -0.424,-0.109 -0.18,-0.1 -0.138,-0.137 -0.104,-0.174 -0.047,-0.219 0.047,-0.712 -0.024,-0.243 -0.052,-0.23 -0.081,-0.201 -0.098,-0.174 -1.403,-1.657 -0.087,-0.181 -0.034,-0.23 0.029,-0.224 0.233,-1.093 0.016,-0.521 -0.024,-0.251 -0.214,-0.886 -0.011,-0.222 0.034,-0.221 0.621,-2.65 0.024,-0.242 -0.012,-0.228 -0.04,-0.224 -0.093,-0.185 -0.139,-0.137 -0.731,-0.351 -0.098,-0.142 -0.018,-0.159 0.006,-0.143 0.087,-0.401 0.052,-0.439 -0.041,-0.206 -0.086,-0.185 -0.14,-0.143 -0.161,-0.108 -0.192,-0.081 -0.428,-0.118 -0.465,-0.079 -1.279,-0.024 -0.22,-0.04 -0.202,-0.073 -0.174,-0.099 -0.158,-0.118 -0.127,-0.155 -0.11,-0.168 -0.087,-0.193 -0.069,-0.218 -0.852,-5.083 -0.104,-0.178 -0.133,-0.152 -0.173,-0.1 -0.197,-0.08 -0.429,-0.111 -0.198,-0.077 -0.18,-0.1 -0.127,-0.147 -0.11,-0.167 -0.069,-0.208 -0.116,-0.453 -0.081,-0.201 -0.139,-0.14 -0.179,-0.096 -1.536,-0.359 h -1.565 l -0.463,-0.068 -0.388,-0.127 -0.156,-0.111 -0.283,-0.27 -0.11,-0.17 -0.093,-0.182 0.139,-0.42 0.301,-0.563 0.816,-1.149 0.551,-0.939 0.203,-0.6 0.122,-0.268 0.098,-0.284 0.342,-1.804 0.006,-0.231 -0.035,-0.222 -0.162,-0.405 -0.064,-0.213 -0.029,-0.23 0.093,-0.331 0.185,-0.392 0.44,-0.724 0.15,-0.425 0.052,-0.342 -0.064,-0.212 -0.092,-0.187 -0.127,-0.155 -0.585,-0.512 -0.058,-0.238 0.046,-0.335 0.197,-0.552 0.053,-0.361 0.005,-0.306 -0.127,-0.436 -0.11,-0.162 -0.168,-0.1 -0.471,-0.038 -0.225,-0.044 -0.157,-0.125 -0.098,-0.181 -0.174,-0.673 -0.167,-0.393 -0.064,-0.218 -0.07,-0.5 -0.017,-0.533 0.017,-0.287 0.058,-0.306 0.208,-0.674 0.041,-0.25 -0.052,-0.2 -0.11,-0.158 -0.162,-0.114 -0.596,-0.221 -0.162,-0.117 -0.116,-0.165 -0.307,-0.799 -0.023,-0.229 0.069,-0.439 0.012,-0.212 -0.058,-0.199 -0.129,-0.145 -0.157,-0.123 -0.566,-0.259 -0.846,-0.251 -0.389,-0.163 -0.162,-0.123 -0.127,-0.173 -0.064,-0.222 -0.041,-0.242 -0.063,-0.213 -0.099,-0.193 -0.116,-0.167 -0.133,-0.151 -0.231,-0.332 -1.588,-2.928 -0.272,-0.881 -0.081,-0.495 -0.087,-1.069 -0.121,-0.465 -0.18,-0.385 -1.055,-1.461 -0.093,-0.192 -0.075,-0.208 -0.04,-0.228 0.005,-0.248 0.029,-0.264 0.336,-0.962 0.04,-0.228 0.023,-0.244 -0.003,-0.258 -0.046,-0.235 -0.251,-0.571 -0.058,-0.178 -0.024,-0.148 -0.034,-0.562 -0.041,-0.191 -0.057,-0.188 -0.093,-0.195 -0.226,-0.36 -0.156,-0.408 -0.399,-1.587 -0.307,-0.822 -0.023,-0.249 0.017,-0.271 0.11,-0.607 0.023,-0.544 0.035,-0.267 0.069,-0.251 0.127,-0.283 0.122,-0.199 0.174,-0.4 0.058,-0.214 0.104,-0.742 0.058,-0.255 0.104,-0.29 0.104,-0.196 0.104,-0.174 0.105,-0.126 0.312,-0.314 0.373,-0.459 1.105,-1.13 0.214,-0.143 0.295,-0.126 0.569,-0.098 0.359,-0.015 1.476,0.193 0.234,-0.006 0.7,-0.112 0.237,0.009 0.631,0.146 0.208,-0.037 0.182,-0.122 0.109,-0.283 0.128,-0.49 0.203,-0.363 0.121,-0.158 0.191,-0.354 0.168,-0.665 0.069,-0.201 0.157,-0.17 0.219,-0.126 0.429,-0.042 0.824,0.061 0.486,-0.061 0.666,-0.183 0.25,-0.008 0.237,0.026 0.215,0.058 0.5,0.388 1.393,-7.226 -4.503,-7.418 0.101,-4.917 7.016,0.511 2.338,-5.105 -1.871,-7.157 -7.015,-1.535 -2.339,-3.07 -1.87,-5.635 -0.936,-7.692 -1.87,-4.622 v -5.14 L 14.932,23.373 13.529,17.19 8.384,12.032 1.836,6.352 Z"
         style="fill:none;stroke:#000000;stroke-width:0.5;stroke-linecap:round;stroke-linejoin:round;stroke-miterlimit:4;stroke-dasharray:none;stroke-opacity:1"
         id="path54"
         inkscape:connector-curvature="0" /></g><g
       id="menabe"
       transform="translate(276.0093,204.6025)"
       inkscape:label="#g56"><path
         d="M 0,0 1.021,0.541 1.513,1.271 1.668,1.389 3.747,1.34 5.144,1.741 5.843,1.565 6.505,1.271 7.183,1.115 l 0.929,0.359 1.085,0.864 0.902,1.075 0.374,0.998 0.192,1.176 1.339,3.752 1.41,7.731 2.355,4.617 0.783,0.773 1.222,0.302 0.674,0.594 2.014,3.79 0.465,1.613 0.347,1.888 0.513,1.772 0.966,1.287 0.006,-0.359 0.061,-0.243 0.188,-0.487 0.909,2.169 0.52,0.688 1.64,1.287 0.523,0.528 -0.128,1.28 0.371,1.449 2.725,5.488 0.802,1.252 2.227,2.184 0.881,1.107 0.702,1.261 0.602,1.484 0.191,1.215 0.012,1.703 -0.279,1.322 -0.69,0.097 -0.328,1.104 -0.18,0.279 -0.267,0.155 -0.534,0.028 -0.244,0.087 -0.504,0.446 -0.495,0.614 -0.38,0.694 -0.149,0.682 0.146,0.536 0.714,1.362 0.288,0.419 0.301,0.562 0.122,0.662 -0.043,1.357 -0.085,0.403 -0.133,0.359 -0.088,0.377 0.051,0.462 0.176,0.18 0.651,0.413 0.218,0.242 0.189,0.745 0.091,0.609 0.298,0.416 0.823,0.149 0.495,0.689 -0.149,1.554 -0.75,2.626 -0.559,1.26 -0.714,1.171 -1.771,1.726 -0.271,0.461 -0.291,1.297 -0.711,1.291 -2.696,3.536 0.013,-0.002 0.826,-0.162 1.57,-0.592 1.274,-0.157 0.795,-0.208 0.335,-0.009 0.371,0.092 0.787,0.264 0.436,0.061 0.428,0.012 0.353,-0.03 0.347,-0.084 0.278,-0.111 0.232,-0.124 0.26,-0.206 0.488,-0.57 1.542,-2.245 0.266,-0.277 0.359,-0.19 0.874,-0.216 0.488,-0.031 1.042,0.127 0.828,-0.184 0.465,-0.013 0.642,0.056 0.648,-0.362 0.313,-0.034 0.725,0.187 0.388,0.006 1.099,-0.484 0.686,-0.431 0.376,-0.185 0.851,-0.245 0.434,-0.073 0.436,0.012 1.261,0.356 0.44,0.239 0.436,0.456 0.313,0.633 0.318,0.462 0.532,0.309 0.446,0.172 0.425,0.104 0.405,-0.033 0.729,-0.305 0.974,-0.265 0.319,-0.147 0.353,-0.102 0.428,0.049 0.561,0.325 0.847,0.153 0.776,0.034 0.376,0.148 0.251,0.257 v 0.446 l -0.193,0.324 -0.283,0.282 -1.586,1.153 -0.28,0.259 -0.232,0.263 -0.254,0.486 -0.116,0.329 -0.052,0.384 0.11,0.485 0.405,0.616 0.255,0.502 0.146,0.595 -0.029,0.477 -0.129,0.418 -0.179,0.376 -0.14,0.402 -0.393,1.863 -0.249,0.72 -0.087,0.443 -0.145,0.376 -0.19,0.301 -0.295,0.11 -0.249,0.127 -0.164,0.131 -0.139,0.301 -0.099,0.357 0.035,0.494 0.191,0.566 0.413,0.855 0.139,0.601 0.029,0.546 -0.261,1.319 -0.133,0.333 -0.133,0.218 -0.185,0.209 -0.789,0.73 -0.504,1.039 -0.041,0.397 0.128,0.473 -0.052,0.403 -0.168,0.336 -0.503,0.597 -0.182,0.344 -0.087,0.393 -0.023,0.794 -0.283,0.709 -0.788,3.735 -0.138,0.391 -0.18,0.352 -0.852,1.31 -0.163,0.348 -0.202,0.695 -0.139,0.35 -1.345,1.928 -0.191,0.338 -0.139,0.337 0.029,0.378 0.162,0.333 0.621,1.007 0.238,0.313 1.482,1.261 0.968,0.517 0.938,0.272 0.476,0.311 0.342,0.341 0.214,0.327 0.243,0.305 0.555,0.538 0.442,0.54 0.178,0.169 0.494,0.372 0.266,0.274 0.278,0.223 0.318,0.075 0.888,-0.643 1.169,-0.561 0.387,-0.305 0.29,-0.341 0.28,-0.26 0.353,-0.115 0.503,0.156 0.718,0.438 1.42,0.675 0.509,-0.01 0.54,-0.112 0.926,-0.359 0.51,-0.297 0.411,-0.293 0.575,-0.504 0.375,-0.219 3.333,-1.465 0.48,-0.081 0.538,0.246 0.764,0.495 0.255,0.245 0.198,0.261 0.261,0.08 0.394,-0.004 0.74,-0.344 0.313,-0.268 0.208,-0.308 0.112,-0.354 0.18,-0.328 0.243,-0.26 0.347,-0.038 0.347,0.144 0.342,0.354 0.225,0.195 0.191,0.215 0.743,0.14 0.619,-0.256 0.284,-0.31 1.067,-1.673 0.156,-0.451 0.012,-0.287 -0.417,-0.431 -0.118,-0.16 -0.081,-0.2 -0.046,-0.232 0.023,-1.287 0.517,-4.731 -0.243,-2.035 -0.104,-0.293 -0.127,-0.141 -0.147,-0.128 -0.648,-0.44 -0.145,-0.13 -0.133,-0.143 -0.104,-0.162 -0.18,-0.369 -0.115,-0.159 -0.145,-0.128 -0.517,-0.291 -0.143,-0.128 -0.135,-0.145 -0.295,-0.532 -0.11,-0.162 -0.631,-0.734 -0.301,-0.238 -0.359,-0.33 -0.21,-0.312 -0.058,-0.262 0.019,-0.231 0.132,-0.403 0.1,-0.44 0.174,-1.957 0.219,-0.849 0.07,-0.2 0.237,-1.111 -0.011,-0.32 -0.058,-0.255 -0.093,-0.184 -0.353,-0.593 -0.145,-0.34 -0.179,-0.653 0.015,-0.33 0.112,-0.214 0.186,-0.092 0.613,-0.214 0.174,-0.103 0.15,-0.122 0.128,-0.142 0.295,-0.517 0.656,-1.793 0.086,-0.159 0.128,-0.151 0.15,-0.126 0.677,-0.417 0.162,-0.235 0.18,-0.322 0.214,-0.692 0.168,-0.325 0.185,-0.218 0.841,-0.28 0.209,-0.147 0.202,-0.296 0.046,-0.259 -0.028,-0.235 -0.186,-0.435 -0.081,-0.299 -0.064,-0.5 0.053,-0.289 0.092,-0.22 0.394,-0.421 0.448,-0.642 0.358,-0.72 0.105,-0.168 0.243,-0.298 0.746,-0.632 0.365,-0.453 0.266,-0.275 0.162,-0.114 0.182,-0.088 0.208,-0.028 0.208,0.037 0.186,0.079 0.509,0.305 0.365,0.172 0.615,0.194 0.22,0.032 0.231,-0.024 0.267,-0.241 0.087,-0.285 0.022,-0.424 0.076,-0.268 0.341,-0.748 0.133,-0.66 0.371,-1.096 0.081,-0.36 0.054,-0.376 0.038,-1.206 -0.142,-0.972 0.027,-1.166 -0.039,-0.323 -0.112,-0.163 -0.156,-0.112 -0.568,-0.191 -0.115,-0.072 -0.081,-0.101 -0.046,-0.187 0.075,-2.172 -0.018,-0.251 -0.069,-0.205 -0.116,-0.236 -0.098,-0.3 -0.064,-0.545 0.023,-0.32 0.093,-0.239 0.133,-0.14 0.145,-0.252 0.15,-0.353 0.359,-1.417 0.813,-1.939 0.08,-0.444 0.052,-0.599 0.076,-0.407 0.237,-0.858 0.035,-0.3 -0.122,-1.535 -0.063,-0.22 L 86.21,61.047 86.002,60.706 85.73,60.43 85.427,60.18 85.172,59.902 85.01,59.548 84.953,59.33 84.849,58.596 84.785,58.381 84.594,58.02 83.689,56.906 83.616,56.555 83.527,55.568 83.469,55.345 83.394,55.144 83.099,54.607 83.07,54.368 l 0.057,-0.3 0.238,-0.4 0.181,-0.232 0.185,-0.172 0.313,-0.235 0.538,-0.291 0.156,-0.121 0.111,-0.167 0.04,-0.22 -0.058,-0.295 -0.156,-0.446 -0.029,-0.242 0.069,-0.56 -0.034,-0.23 -0.099,-0.184 -0.15,-0.127 -0.313,-0.227 -0.139,-0.138 -0.104,-0.173 -0.063,-0.215 -0.024,-0.25 0.024,-0.747 -0.024,-0.232 -0.054,-0.222 -0.011,-0.246 0.059,-0.284 0.232,-0.423 0.11,-0.32 0.023,-0.399 -0.006,-0.585 0.07,-0.322 0.144,-0.437 0.325,-0.724 0.486,-2.081 0.011,-0.753 0.047,-0.318 0.65,-2.738 0.052,-0.385 v -0.315 l -0.058,-0.222 -0.158,-0.398 -0.116,-0.433 -0.023,-0.242 0.011,-0.236 0.315,-1.571 0.018,-0.251 -0.018,-0.515 -0.048,-0.228 -0.074,-0.208 -0.366,-0.613 -0.052,-0.127 -0.052,-0.179 -0.053,-0.736 -0.086,-0.479 -0.064,-0.215 -0.081,-0.191 -0.069,-0.205 0.017,-0.354 0.963,-4.239 0.15,-1.894 -0.017,-0.249 -0.041,-0.229 -0.109,-0.171 -0.151,-0.124 -0.21,-0.068 -0.73,-0.087 -0.185,-0.086 -0.133,-0.149 -0.081,-0.204 -0.047,-0.241 -0.069,-0.772 -0.063,-0.22 -0.087,-0.193 -0.203,-0.359 -0.069,-0.204 -0.238,-1.154 -0.023,-0.231 0.012,-0.481 -0.043,-0.483 0.02,-0.376 0.092,-0.499 0.261,-0.948 0.069,-0.502 0.006,-0.365 -0.11,-0.457 -4.396,-0.721 -3.742,-1.002 -4.677,-5.011 -7.951,-3.008 -3.741,-4.516 -2.806,-3.012 -4.21,0.502 -2.338,2.51 -5.145,0.502 -1.871,-4.519 v -10.053 l -3.469,-5.417 -0.872,-0.46 -0.844,-0.655 -1.34,-0.341 -1.878,-0.902 -2.871,-0.105 -1.231,-0.325 -1.121,-0.696 -0.325,1.08 -0.207,0.294 -0.376,0.23 -0.164,-0.039 -0.331,-0.603 -0.733,-0.779 -0.346,0.023 -0.601,1.168 -1.231,0.727 -1.391,-0.078 -1.365,-0.55 -1.133,-0.678 -0.647,-0.625 -0.917,-1.28 -0.605,-0.239 -1.349,-0.34 -0.775,-0.125 -0.829,0.19 -0.328,0.209 -0.435,0.442 -0.258,0.174 -0.514,0.141 -0.492,0.059 -0.471,0.118 -0.446,0.343 -0.164,0.354 -0.155,0.903 -0.192,0.393 -0.902,0.981 -0.604,1.113 -0.292,0.704 -0.125,0.529 -0.276,0.55 -1.231,1.016 -0.276,0.916 -0.094,0.928 -0.247,0.635 -0.68,1.32 -0.085,0.402 -0.043,0.843 L 7.69,-10.161 7.429,-9.788 6.393,-9.011 5.664,-8.028 5.287,-7.322 5.123,-6.695 4.758,-6.187 3.166,-5.282 2.801,-4.757 2.489,-2.678 2.318,-2.169 1.887,-1.731 0.553,-0.832 0,-0.251 Z"
         style="fill:none;stroke:#000000;stroke-width:0.5;stroke-linecap:round;stroke-linejoin:round;stroke-miterlimit:4;stroke-dasharray:none;stroke-opacity:1"
         id="path58"
         inkscape:connector-curvature="0" /></g><g
       id="melaky"
       transform="translate(303.2461,290.6865)"
       inkscape:label="#g60"><path
         d="m 0,0 -0.747,0.979 -0.649,1.284 -0.256,1.349 0.256,2.305 0.503,1.23 v 2.422 l -0.03,0.097 -0.158,0.289 -0.042,0.154 0.066,0.269 0.317,0.318 0.103,0.216 0.231,0.979 0.024,0.385 -0.158,1.233 -0.893,2.749 -1.775,4.862 -2.667,3.737 -2.418,3.518 -0.295,1.165 0.003,7.821 -1.464,7.633 -0.061,2.581 1.106,4.864 0.188,1.743 -0.201,0.584 -0.893,0.842 -0.519,1.789 -2.361,3.36 -0.21,0.944 0.016,1.217 0.322,2.409 0.391,1.143 1.906,3.134 0.668,1.626 0.234,0.111 0.441,-0.226 0.236,0.293 0.344,1.133 2.843,4.454 0.611,0.63 0.274,0.568 0.115,0.554 0.116,1.85 1.045,-0.029 0.911,1.495 1.267,3.354 0.258,0.407 1.018,1.061 0.201,0.327 0.306,0.886 0.268,0.394 0.607,0.698 0.45,0.73 0.717,1.625 0.978,1.448 1.304,1.44 1.085,1.539 0.339,1.747 -0.206,0.755 -0.674,1.661 -0.164,0.8 0.188,0.938 0.435,0.437 0.385,-0.19 0.036,-0.951 0.59,1.014 0.292,1.074 -0.018,1.087 -0.356,1.081 -1.404,2.128 -0.564,1.175 -0.092,1.26 0.164,0.491 0.292,0.554 0.349,0.529 0.353,0.398 0.255,0.418 0.091,0.517 0.11,2.189 0.121,0.532 0.304,0.351 0.619,0.174 1.243,0.006 1.279,0.215 8.143,-0.794 1.008,0.238 0.462,-0.032 0.905,-0.756 0.654,-0.371 0.674,-0.183 0.526,0.174 0.352,0.456 2.551,-3.024 0.468,-4.874 2.338,-4.389 4.678,-3.904 3.741,-1.953 0.468,-3.418 3.274,-3.909 3.741,-0.977 1.871,-3.422 -0.468,-3.913 2.339,-9.792 1.403,-3.921 h 3.274 l 4.209,0.49 3.274,-0.49 0.467,-2.942 -1.87,-1.962 0.468,-2.943 2.806,-2.945 1.744,-4.239 -0.3,-0.355 -0.244,-0.382 -0.167,-0.434 -0.116,-0.401 -0.031,-0.371 0.081,-0.73 0.007,-0.357 -0.083,-0.352 -0.59,-1.422 -0.081,-0.371 -0.098,-0.756 -0.151,-0.335 -1.076,-1.089 -0.216,-0.319 -0.272,-0.659 -0.498,-1.92 -0.104,-0.793 -0.145,-0.368 -0.191,-0.363 -0.249,-0.365 -0.968,-1.089 -0.226,-0.412 -0.133,-0.477 -0.041,-0.422 0.145,-1.279 -0.075,-0.378 -0.22,-0.346 -1.414,-1.076 -0.341,0.036 -1.461,0.48 -0.48,0.1 -0.342,-0.119 -0.295,-0.138 h -0.278 l -0.249,0.195 -0.266,0.256 -0.39,0.205 -0.434,0.171 -0.544,0.146 -0.382,-0.077 -0.314,-0.203 -0.539,-0.546 -0.22,-0.301 -0.173,-0.352 -0.116,-0.31 -0.139,-0.254 -0.335,-0.401 -0.744,-0.14 -0.191,-0.215 -0.225,-0.195 -0.341,-0.354 -0.348,-0.144 -0.347,0.038 -0.243,0.26 -0.18,0.328 -0.111,0.354 -0.209,0.308 -0.312,0.268 -0.741,0.344 -0.394,0.004 -0.26,-0.08 -0.199,-0.261 -0.255,-0.245 -0.764,-0.495 -0.538,-0.246 -0.48,0.081 -3.332,1.465 -0.376,0.219 -0.575,0.504 -0.411,0.293 -0.509,0.297 -0.927,0.359 -0.54,0.112 -0.509,0.01 -1.42,-0.675 -0.718,-0.438 -0.503,-0.156 -0.353,0.115 -0.28,0.26 -0.289,0.341 -0.388,0.305 -1.169,0.561 -0.888,0.643 -0.318,-0.075 -0.278,-0.223 -0.266,-0.274 -0.494,-0.372 -0.178,-0.169 -0.441,-0.54 -0.556,-0.538 -0.243,-0.305 -0.214,-0.327 -0.342,-0.341 -0.476,-0.311 -0.938,-0.272 -0.968,-0.516 -1.482,-1.262 -0.237,-0.313 -0.622,-1.007 -0.162,-0.333 -0.028,-0.378 0.138,-0.337 0.192,-0.338 1.344,-1.928 0.139,-0.35 0.203,-0.695 0.162,-0.348 0.852,-1.31 0.18,-0.352 0.139,-0.391 0.787,-3.735 0.283,-0.709 0.023,-0.794 0.087,-0.393 0.182,-0.344 0.503,-0.597 0.168,-0.336 0.052,-0.403 -0.127,-0.472 0.041,-0.398 0.503,-1.039 0.789,-0.73 0.185,-0.209 0.134,-0.218 0.132,-0.333 0.261,-1.319 L 27.656,11.479 27.517,10.878 27.104,10.023 26.913,9.457 26.878,8.963 26.977,8.606 27.116,8.305 27.28,8.174 27.529,8.047 27.824,7.937 28.015,7.636 28.16,7.26 28.246,6.817 28.495,6.097 28.889,4.234 29.028,3.832 29.207,3.456 29.336,3.038 29.365,2.561 29.219,1.966 28.964,1.464 28.559,0.848 l -0.11,-0.485 0.052,-0.384 0.116,-0.329 0.255,-0.486 0.231,-0.263 0.28,-0.259 1.586,-1.153 0.283,-0.282 0.193,-0.324 v -0.446 l -0.251,-0.257 -0.376,-0.148 -0.776,-0.034 -0.847,-0.153 -0.561,-0.325 -0.428,-0.049 -0.353,0.102 -0.319,0.147 -0.974,0.265 -0.729,0.305 -0.405,0.033 -0.425,-0.104 -0.445,-0.172 -0.533,-0.309 -0.318,-0.462 -0.313,-0.633 -0.436,-0.455 -0.439,-0.24 -1.262,-0.356 -0.436,-0.012 -0.434,0.073 -0.851,0.245 -0.376,0.185 -0.685,0.431 -1.1,0.484 -0.388,-0.006 -0.725,-0.187 -0.313,0.034 -0.648,0.362 -0.642,-0.055 -0.465,0.012 -0.828,0.184 -1.042,-0.127 -0.488,0.031 -0.874,0.216 -0.358,0.19 -0.267,0.277 -1.542,2.245 -0.487,0.57 L 8.045,-1.05 7.813,-0.926 7.536,-0.815 7.188,-0.731 6.835,-0.701 6.407,-0.713 5.971,-0.774 5.184,-1.038 4.813,-1.13 4.478,-1.121 3.683,-0.913 2.41,-0.756 0.839,-0.164 0.014,-0.002 Z"
         style="fill:none;stroke:#000000;stroke-width:0.5;stroke-linecap:round;stroke-linejoin:round;stroke-miterlimit:4;stroke-dasharray:none;stroke-opacity:1"
         id="path62"
         inkscape:connector-curvature="0" /></g><g
       id="analamanga"
       transform="translate(438.8037,339.7393)"
       inkscape:label="#g64"><path
         d="m 0,0 0.156,-0.839 0.075,-0.195 0.118,-0.225 0.15,-0.122 0.516,-0.31 0.15,-0.12 0.33,-0.213 L 2.068,-2.271 2.241,-2.375 2.375,-2.504 2.476,-2.673 2.537,-2.882 2.672,-4.616 2.735,-4.829 3.014,-5.358 3.141,-5.772 3.32,-6.664 3.471,-7.047 3.69,-7.429 3.731,-7.613 3.726,-7.861 3.586,-8.214 3.499,-8.585 3.436,-9.022 l 0.029,-0.773 0.115,-0.683 0.041,-0.119 0.012,-0.084 -0.081,-2.426 0.04,-0.348 0.11,-0.256 0.573,-1.01 0.058,-0.292 v -1.083 l 0.035,-0.382 0.069,-0.281 0.303,-0.51 0.087,-0.185 0.052,-0.205 0.006,-0.262 -0.041,-0.277 -0.181,-0.339 -0.15,-0.206 -0.609,-0.53 -0.208,-0.291 -0.063,-0.122 -0.047,-0.221 -0.052,-0.348 0.035,-1.413 -0.307,-3.296 0.035,-0.499 -0.029,-0.506 -0.151,-0.688 -1.246,-3.586 -0.475,-2.627 0.087,-3.04 0.127,-0.952 0.279,-1.085 0.023,-0.238 -0.104,-1.332 0.029,-0.893 -0.116,-1.899 -0.058,-0.394 -0.156,-0.381 -0.151,-0.288 -0.191,-0.281 -0.087,-0.223 -0.046,-0.275 -0.006,-0.496 -0.052,-0.396 -0.173,-0.511 -0.627,-1.263 -0.053,-0.274 -0.017,-0.32 0.064,-0.533 0.081,-0.309 1.211,-2.393 0.064,-0.201 0.023,-0.324 -0.064,-1.158 0.024,-0.391 0.052,-0.299 0.213,-0.6 0.012,-1.39 0.099,-0.778 -0.012,-0.501 -0.261,-2.585 -0.115,-0.598 -0.093,-0.288 -0.144,-0.319 -0.637,-0.998 -0.506,-0.596 -0.109,-0.194 -0.064,-0.264 -0.046,-0.495 -0.099,-0.426 -0.26,-0.563 -0.516,-0.882 -0.081,-0.258 -0.063,-0.332 -0.006,-0.941 0.105,-0.764 -5.063,3.975 -6.548,2.976 v 4.957 l 0.936,5.448 h -4.21 l -1.87,6.434 -4,6.776 -0.492,1.143 -1.061,0.411 -1.157,0.776 -2.614,0.565 -1.725,0.436 -0.701,0.998 -1.529,0.824 -1.181,1.739 -0.481,1.843 -1.273,1.118 -0.644,1.189 -1.157,5.481 -3.767,3.671 -4.962,6.845 -3.251,8.637 -1.206,6.647 2.473,0.186 2.231,0.579 0.578,0.067 0.783,-0.042 1.38,-0.262 1.539,-0.085 0.498,0.107 0.592,0.305 0.464,-0.023 0.37,0.055 0.301,-0.014 0.237,-0.357 0.389,-1.243 0.087,-0.422 -0.011,-0.442 -0.145,-0.818 0.156,-0.333 0.423,-0.184 1.958,-0.018 1.054,-0.14 0.789,-0.255 0.364,-0.308 0.463,-0.558 0.342,0.116 0.226,0.285 0.395,0.732 0.226,0.31 0.585,0.498 0.346,0.206 0.4,0.139 1.42,0.196 0.388,0.146 1.246,0.935 0.422,0.218 0.562,0.162 0.957,0.091 0.856,-0.008 0.981,-0.168 1.597,-0.544 0.719,-0.349 0.365,-0.3 -0.011,-0.322 0.017,-0.322 0.064,-0.408 0.277,-0.772 0.227,-0.312 0.289,-0.251 1.09,-0.547 0.318,-0.242 0.243,-0.301 0.186,-0.366 0.324,-0.362 0.584,-0.268 1.05,-0.3 1.587,-0.231 1.256,0.188 0.517,-0.182 0.261,-0.325 0.434,-0.762 0.353,-0.32 0.909,-0.102 1.46,0.073 5.353,1 1.088,0.399 z"
         style="fill:none;stroke:#000000;stroke-width:0.5;stroke-linecap:round;stroke-linejoin:round;stroke-miterlimit:4;stroke-dasharray:none;stroke-opacity:1"
         id="path66"
         inkscape:connector-curvature="0" /></g><g
       id="betsiboka"
       transform="translate(438.8037,339.7393)"
       inkscape:label="#g68"><path
         d="m 0,0 -2.098,-0.477 -1.088,-0.399 -5.353,-1 -1.46,-0.073 -0.909,0.102 -0.353,0.32 -0.434,0.762 -0.261,0.325 -0.517,0.182 -1.256,-0.188 -1.587,0.231 -1.05,0.3 -0.584,0.268 -0.324,0.362 -0.186,0.366 -0.243,0.301 -0.318,0.242 -1.09,0.547 -0.289,0.251 -0.227,0.312 -0.277,0.772 -0.064,0.408 -0.017,0.322 0.011,0.322 -0.365,0.3 -0.719,0.349 -1.597,0.544 -0.981,0.168 -0.856,0.008 -0.957,-0.091 -0.562,-0.162 -0.422,-0.218 -1.246,-0.935 -0.388,-0.146 -1.42,-0.196 -0.4,-0.139 -0.346,-0.206 -0.585,-0.498 -0.226,-0.31 -0.395,-0.732 -0.226,-0.285 -0.342,-0.116 -0.463,0.558 -0.364,0.308 -0.789,0.255 -1.054,0.14 -1.958,0.018 -0.423,0.184 -0.156,0.333 0.145,0.818 0.011,0.442 -0.087,0.422 -0.389,1.243 -0.237,0.357 -0.301,0.014 -0.37,-0.055 -0.464,0.023 -0.592,-0.305 -0.498,-0.107 -1.539,0.085 -1.38,0.262 -0.783,0.042 -0.578,-0.067 -2.231,-0.579 -2.473,-0.186 -0.584,0.072 -0.495,0.134 -0.405,0.213 -0.284,-0.121 -0.521,-0.505 -0.7,-0.387 -0.633,-0.445 -0.341,-0.169 -0.735,-0.17 -0.366,-0.134 -0.336,-0.176 -0.48,-0.181 -0.62,-0.133 -1.049,-0.103 -0.556,-0.182 -0.353,-0.292 -0.145,-0.329 -0.26,-0.253 -0.372,-0.16 -1.008,-0.27 -0.781,-0.111 -0.511,-0.168 -1.198,-0.726 -0.359,-0.174 -0.396,-0.006 -0.474,0.054 -0.388,-0.18 -0.388,-0.227 -0.752,-0.249 -0.471,0.018 -0.243,0.249 -0.029,0.758 -0.214,0.331 -0.278,-0.021 -0.772,-0.356 -0.596,-0.128 -0.48,0.031 -0.405,0.143 -0.417,0.215 -0.511,0.207 -1.453,0.298 -0.405,0.174 -0.239,0.194 -0.406,0.418 -0.306,0.176 -0.463,0.088 -1.745,4.238 -2.806,2.945 -0.468,2.944 1.871,1.962 -0.468,2.941 -3.274,0.491 -4.209,-0.491 h -3.274 l -1.403,3.921 -2.338,9.792 0.467,3.913 7.016,1.467 4.209,-1.956 h 7.951 l 1.403,-2.446 2.806,-3.914 4.209,-3.427 2.339,1.469 1.871,4.405 2.338,1.467 2.338,2.935 4.21,0.978 2.806,6.842 1.573,6.473 4.975,0.85 5.612,0.488 4.677,-0.488 4.209,-1.952 3.274,-1.465 1.403,1.953 -1.871,2.928 -4.209,3.415 2.807,2.926 2.805,3.411 3.275,-1.949 3.273,-1.95 h 4.209 l 1.871,-1.463 3.274,-1.463 5.674,-1.56 L 0.526,53.4 0.841,51.615 0.898,51.409 1.46,50.362 1.616,49.98 1.732,49.565 1.877,48.599 1.929,47.177 1.889,46.901 1.715,46.568 1.622,46.292 1.588,46 1.686,45.616 1.865,45.138 2.079,44.812 2.637,44.286 2.868,43.979 2.996,43.843 3.111,43.689 3.21,43.516 3.338,43.111 3.424,42.942 3.534,42.811 3.72,42.629 3.991,42.418 4.119,42.279 4.217,42.109 4.292,41.874 4.402,41.18 4.531,40.969 4.686,40.812 4.855,40.708 5.006,40.594 5.14,40.457 5.249,40.291 5.417,39.918 5.521,39.757 5.666,39.634 5.834,39.533 6.024,39.455 6.378,39.267 6.534,39.152 6.611,38.91 6.6,38.571 6.182,37.311 6.204,37.121 6.372,36.93 6.528,36.674 6.627,36.318 6.65,35.342 6.673,35.159 7.521,33.94 l 0.532,-0.547 0.642,-0.437 0.193,-0.08 0.219,-0.048 0.244,-0.018 0.492,0.018 0.463,-0.066 0.191,-0.085 0.121,-0.214 0.059,-0.337 -0.041,-0.654 0.029,-0.366 0.069,-0.266 0.099,-0.23 0.077,-0.303 0.038,-0.521 0.072,-0.313 0.081,-0.244 0.081,-0.186 0.069,-0.204 L 11.193,28.456 11.02,27.925 10.219,26.438 9.987,26.139 9.698,25.893 9.577,25.711 9.513,25.475 9.536,25.07 9.722,24.382 9.623,24.066 9.432,23.672 8.969,22.959 8.703,22.63 8.342,22.264 8.227,22.038 8.122,21.73 7.758,20.085 7.63,19.764 7.422,19.507 6.93,19.114 6.831,18.92 6.789,18.672 6.854,18.295 6.97,18.077 7.144,17.937 7.844,17.861 8.006,17.766 8.053,17.553 8.029,17.296 7.937,16.91 7.966,16.413 7.919,16.2 7.677,15.958 7.283,15.668 7.121,15.488 6.987,15.231 6.89,14.711 V 13.813 L 6.825,13.588 6.716,13.42 6.303,13.287 6.141,13.089 6.014,12.5 5.933,11.069 5.759,9.87 5.648,9.585 5.464,9.299 5.029,8.9 4.758,8.822 4.501,8.81 4.281,8.838 4.055,8.819 3.87,8.767 3.708,8.706 3.609,8.649 3.488,8.559 3.366,8.366 3.268,8.086 3.204,7.57 3.222,6.946 3.192,6.693 3.095,6.408 2.828,6.067 2.409,5.666 2.3,5.478 2.213,5.216 2.195,4.763 2.225,4.465 2.328,3.999 2.219,3.567 1.229,1.705 Z"
         style="fill:none;stroke:#000000;stroke-width:0.5;stroke-linecap:round;stroke-linejoin:round;stroke-miterlimit:4;stroke-dasharray:none;stroke-opacity:1"
         id="path70"
         inkscape:connector-curvature="0" /></g><g
       id="bongolava"
       transform="translate(366.6455,343.2539)"
       inkscape:label="#g72"><path
         d="M 0,0 0.463,-0.087 0.77,-0.264 1.175,-0.681 1.414,-0.875 1.819,-1.05 3.272,-1.348 3.783,-1.555 4.2,-1.77 l 0.405,-0.143 0.48,-0.031 0.597,0.128 0.771,0.357 0.278,0.02 0.214,-0.331 0.029,-0.757 0.243,-0.25 0.471,-0.018 0.752,0.249 0.388,0.227 0.388,0.181 0.474,-0.055 0.396,0.006 0.359,0.174 1.198,0.726 0.511,0.168 0.782,0.112 1.007,0.269 0.372,0.16 0.261,0.254 0.144,0.328 0.353,0.292 0.556,0.182 1.049,0.104 0.62,0.133 0.48,0.181 0.336,0.176 0.366,0.134 0.735,0.169 0.342,0.169 0.632,0.445 0.701,0.387 0.521,0.505 0.283,0.121 0.406,-0.212 0.494,-0.134 0.584,-0.073 1.206,-6.646 3.251,-8.637 4.962,-6.845 3.767,-3.671 1.157,-5.481 0.644,-1.189 1.273,-1.118 0.481,-1.844 1.182,-1.738 1.528,-0.825 0.701,-0.997 -7.659,0.765 -6.08,0.494 -3.742,-0.494 -3.742,-3.458 -1.87,-6.92 -3.742,-5.938 -5.612,-6.934 -3.741,-5.454 -6.548,-0.992 -6.659,0.662 0.045,0.188 0.082,0.1 0.115,0.073 0.568,0.191 0.156,0.111 0.112,0.163 0.038,0.324 -0.027,1.166 0.143,0.971 -0.039,1.206 -0.053,0.376 -0.081,0.361 -0.371,1.095 -0.133,0.661 -0.342,0.748 -0.075,0.267 -0.023,0.425 -0.087,0.284 -0.266,0.241 -0.231,0.025 -0.22,-0.032 -0.616,-0.195 -0.364,-0.172 -0.51,-0.304 -0.185,-0.079 -0.208,-0.038 -0.209,0.029 -0.181,0.088 -0.162,0.114 -0.266,0.274 -0.365,0.453 -0.746,0.632 -0.244,0.298 -0.104,0.168 -0.358,0.721 -0.448,0.641 -0.394,0.421 -0.093,0.221 -0.052,0.289 0.064,0.499 0.081,0.3 0.185,0.435 0.029,0.235 -0.046,0.259 -0.202,0.296 -0.209,0.147 -0.841,0.279 -0.185,0.219 -0.168,0.324 -0.214,0.693 -0.18,0.322 -0.162,0.234 -0.677,0.417 -0.151,0.126 -0.127,0.152 -0.086,0.159 -0.657,1.793 -0.295,0.516 -0.127,0.143 -0.15,0.122 -0.174,0.103 -0.614,0.213 -0.185,0.092 -0.112,0.215 -0.015,0.33 0.179,0.653 0.145,0.34 0.353,0.593 0.092,0.184 0.059,0.255 0.011,0.32 -0.237,1.111 -0.07,0.199 -0.22,0.85 -0.173,1.957 -0.1,0.44 -0.132,0.403 -0.019,0.23 0.058,0.263 0.21,0.312 0.359,0.33 0.301,0.238 0.631,0.733 0.11,0.163 0.295,0.532 0.135,0.144 0.143,0.129 0.517,0.291 0.144,0.128 0.116,0.159 0.179,0.368 0.105,0.163 0.133,0.143 0.145,0.13 0.648,0.439 0.147,0.129 0.127,0.14 0.104,0.293 0.243,2.036 -0.517,4.731 -0.023,1.287 0.046,0.232 0.081,0.199 0.118,0.161 0.417,0.431 -0.012,0.286 -0.156,0.451 -1.067,1.673 -0.284,0.311 -0.619,0.256 0.336,0.4 0.139,0.254 0.115,0.311 0.174,0.351 0.22,0.301 0.538,0.547 0.315,0.203 0.381,0.077 0.545,-0.147 0.434,-0.17 0.39,-0.205 0.266,-0.256 0.249,-0.195 h 0.278 l 0.294,0.138 0.342,0.118 0.48,-0.099 1.461,-0.48 0.341,-0.037 1.415,1.077 0.219,0.345 0.076,0.378 -0.145,1.28 0.04,0.422 0.134,0.477 0.225,0.412 0.969,1.088 0.249,0.366 0.191,0.363 0.145,0.368 0.104,0.793 0.497,1.92 0.273,0.659 0.215,0.319 1.077,1.088 0.15,0.335 0.099,0.757 0.081,0.371 0.59,1.421 0.083,0.353 -0.007,0.357 -0.081,0.729 0.03,0.371 0.116,0.402 0.168,0.433 0.243,0.383 z"
         style="fill:none;stroke:#000000;stroke-width:0.5;stroke-linecap:round;stroke-linejoin:round;stroke-miterlimit:4;stroke-dasharray:none;stroke-opacity:1"
         id="path74"
         inkscape:connector-curvature="0" /></g><g
       id="vakinakaratra"
       transform="translate(359.6982,261.5088)"
       inkscape:label="#g76"><path
         d="M 0,0 0.905,1.113 1.096,1.475 1.16,1.689 1.264,2.424 1.321,2.642 1.483,2.996 1.738,3.273 2.041,3.523 2.313,3.8 2.521,4.141 2.603,4.337 2.666,4.557 2.788,6.092 2.753,6.392 2.516,7.25 2.44,7.657 2.388,8.256 2.308,8.7 l -0.813,1.939 -0.359,1.417 -0.15,0.353 -0.145,0.252 -0.133,0.14 -0.093,0.239 -0.023,0.319 0.064,0.545 0.098,0.301 0.116,0.235 0.069,0.206 0.018,0.25 -0.075,2.172 6.659,-0.662 6.548,0.992 8.886,1.489 3.741,-0.992 2.806,0.496 3.274,3.47 4.677,2.973 4.677,0.991 4.209,-0.495 1.404,-1.982 5.144,-0.992 h 5.145 l 3.742,2.478 1.402,3.962 h 4.21 l -0.935,-5.448 v -4.957 l 6.548,-2.977 5.062,-3.975 V 11.177 L 78.022,10.882 77.878,10.525 77.448,9.934 77.32,9.661 77.28,9.202 77.332,6.776 77.413,6.317 77.518,5.937 77.577,5.618 V 5.387 l -0.098,-1 L 77.13,3.458 75.972,1.484 75.718,1.189 75.148,0.668 74.512,0.207 74.234,-0.066 74.118,-0.222 73.91,-0.566 73.823,-0.799 73.76,-1.094 l 0.006,-1.384 -0.082,-0.35 -0.139,-0.417 -1.021,-1.856 -0.168,-0.675 -0.156,-1.871 -0.103,0.245 -0.099,0.123 -0.139,0.137 -0.173,0.103 -0.192,0.08 -0.87,0.173 -0.249,0.076 -0.196,0.108 -0.116,0.142 -0.052,0.183 0.035,0.187 0.087,0.17 0.26,0.292 0.104,0.151 0.04,0.19 -0.046,0.181 -0.15,0.134 -0.22,0.061 L 69.744,-5.002 69.513,-5.108 69.334,-5.261 68.816,-5.844 68.66,-5.957 68.452,-6.028 67.3,-6.222 66.91,-6.38 65.023,-7.493 64.831,-7.53 l -0.197,0.048 -0.162,0.215 -0.191,0.419 -0.122,0.154 -0.156,0.117 -0.22,0.072 -0.249,0.012 -0.358,-0.133 -0.174,-0.177 -0.116,-0.21 -0.081,-0.197 -0.112,-0.166 -0.144,-0.132 -0.273,-0.054 -0.387,0.037 -2.312,0.618 -0.184,0.086 -0.458,0.367 -0.173,0.105 -0.233,0.066 -0.291,0.006 -0.422,-0.084 -0.712,-0.224 -0.151,-0.084 -0.092,-0.08 -0.551,-0.709 -0.14,-0.136 -0.191,-0.059 -0.249,0.059 -0.283,0.229 -0.156,0.211 -0.11,0.216 -0.111,0.164 -0.162,0.111 -0.214,0.028 -0.266,-0.088 -0.181,-0.125 -0.162,-0.142 -0.492,-0.326 -0.145,-0.129 -0.26,-0.288 -0.116,-0.166 -0.093,-0.183 -0.057,-0.216 -0.024,-0.722 -0.191,-1.191 -0.052,-0.216 -0.203,-0.143 -0.343,-0.054 -0.654,-0.008 -0.637,-0.13 -0.735,-0.349 -0.297,-0.06 -1.721,-0.088 -1.128,-0.504 -0.249,-0.031 -0.301,0.044 -0.708,0.331 -0.416,0.271 -0.186,0.08 -0.231,0.049 -0.36,-0.055 -0.225,-0.105 -0.494,-0.362 -0.127,-0.147 -0.33,-0.502 -1.158,-1.314 -0.852,-0.792 -0.243,-0.31 -0.139,-0.135 -0.151,-0.124 -0.208,-0.095 -0.94,-0.06 -0.353,-0.08 -0.613,-0.419 -0.741,-0.269 -0.725,0.374 -0.635,0.481 -0.527,-0.178 -0.617,-0.367 -0.909,-0.085 -0.822,0.248 -2.492,1.273 -0.604,-0.134 -0.623,-0.671 -0.71,-0.606 -0.867,0.039 -0.291,0.269 -0.199,0.309 -0.21,0.255 -0.33,0.104 -0.455,0.023 -0.71,0.154 -0.751,0.284 -0.32,0.192 -0.351,0.141 -0.461,0.023 -0.432,-0.154 -0.893,-0.543 -0.483,-0.12 -0.722,0.175 -0.856,0.422 -1.503,1.034 -0.665,0.646 -0.373,0.666 0.148,0.627 0.89,0.529 -0.347,0.446 -0.377,0.956 -0.296,0.499 0.57,0.195 0.224,0.522 -0.05,0.643 -0.258,0.564 -0.417,0.356 -1.121,0.581 -0.476,0.421 -0.29,-0.651 -0.345,-0.355 -0.918,-0.647 -0.894,-1.099 -0.277,-0.036 -0.105,0.864 -0.191,0.811 -0.478,0.218 -0.621,0.078 -0.633,0.384 -0.296,0.637 -0.198,1.395 -0.409,0.571 -0.334,0.117 L 10.2,-3.029 9.936,-3.025 9.652,-2.847 9.166,-2.37 8.917,-2.212 6.507,-2.077 4.671,-1.246 3.816,-1.067 3.546,-0.977 3.28,-0.995 2.915,-1.265 2.684,-1.383 2.371,-1.437 2.045,-1.438 1.779,-1.399 0.826,-0.868 Z"
         style="fill:none;stroke:#000000;stroke-width:0.5;stroke-linecap:round;stroke-linejoin:round;stroke-miterlimit:4;stroke-dasharray:none;stroke-opacity:1"
         id="path78"
         inkscape:connector-curvature="0" /></g><g
       id="amoron-i-mania"
       transform="translate(359.6982,261.5088)"
       inkscape:label="#g80"><path
         d="m 0,0 0.826,-0.868 0.953,-0.531 0.266,-0.039 0.326,10e-4 0.313,0.054 0.231,0.118 0.365,0.27 0.266,0.018 0.27,-0.09 0.855,-0.179 1.836,-0.831 2.41,-0.135 0.249,-0.158 0.486,-0.477 0.284,-0.178 0.264,-0.004 0.677,0.121 0.334,-0.117 0.409,-0.571 0.198,-1.395 0.296,-0.637 0.633,-0.384 0.621,-0.078 0.478,-0.218 0.191,-0.811 0.105,-0.864 0.277,0.036 0.894,1.099 0.918,0.647 0.345,0.355 0.29,0.651 0.476,-0.421 1.121,-0.581 0.417,-0.356 0.258,-0.564 0.05,-0.643 -0.224,-0.522 -0.57,-0.195 0.296,-0.499 0.377,-0.956 0.347,-0.446 -0.89,-0.529 -0.148,-0.627 0.373,-0.666 0.665,-0.646 1.503,-1.034 0.856,-0.422 0.722,-0.175 0.483,0.12 0.893,0.543 0.432,0.154 0.461,-0.023 0.351,-0.141 0.32,-0.192 0.751,-0.284 0.71,-0.154 0.455,-0.023 0.33,-0.104 0.21,-0.255 0.199,-0.309 0.291,-0.269 0.867,-0.039 0.71,0.606 0.623,0.671 0.604,0.134 2.492,-1.273 0.822,-0.248 0.909,0.085 0.617,0.367 0.527,0.178 0.635,-0.481 0.725,-0.374 0.741,0.269 0.613,0.419 0.353,0.08 0.94,0.06 0.208,0.095 0.151,0.124 0.139,0.135 0.243,0.31 0.852,0.792 1.158,1.314 0.33,0.502 0.127,0.147 0.494,0.362 0.225,0.105 0.36,0.055 0.231,-0.049 0.186,-0.08 0.416,-0.271 0.708,-0.331 0.301,-0.044 0.249,0.031 1.128,0.504 1.721,0.088 0.297,0.06 0.735,0.349 0.637,0.13 0.654,0.008 0.343,0.054 0.203,0.143 0.052,0.216 0.191,1.191 0.024,0.722 0.057,0.216 0.093,0.183 0.116,0.166 0.26,0.288 0.145,0.129 0.492,0.326 0.162,0.142 0.181,0.125 0.266,0.088 0.214,-0.028 0.162,-0.111 0.111,-0.164 0.11,-0.216 0.156,-0.211 0.283,-0.229 0.249,-0.059 0.191,0.059 0.14,0.136 0.551,0.709 0.092,0.08 0.151,0.084 0.712,0.224 0.422,0.084 0.291,-0.006 0.233,-0.066 0.173,-0.105 0.458,-0.367 0.184,-0.086 2.312,-0.618 0.387,-0.037 0.273,0.054 0.144,0.132 0.112,0.166 0.081,0.197 0.116,0.21 0.174,0.177 0.358,0.133 0.249,-0.012 0.22,-0.072 0.156,-0.117 0.122,-0.154 0.191,-0.419 0.162,-0.215 0.197,-0.048 0.192,0.037 1.887,1.113 0.39,0.158 1.152,0.194 0.208,0.071 0.156,0.113 0.518,0.583 0.179,0.153 0.231,0.106 0.377,0.091 0.22,-0.061 0.15,-0.134 0.046,-0.181 -0.04,-0.19 -0.104,-0.151 -0.26,-0.292 -0.087,-0.17 -0.035,-0.187 0.052,-0.183 0.116,-0.142 0.196,-0.108 0.249,-0.076 0.87,-0.173 0.192,-0.08 0.173,-0.103 0.139,-0.137 0.099,-0.123 0.103,-0.245 -0.028,-1.999 -0.105,-0.732 -0.173,-0.384 -0.388,-1.131 -0.615,-2.554 -0.139,-1.023 0.156,-3.279 0.087,-0.348 0.109,-0.162 0.135,-0.142 0.105,-0.171 0.231,-0.591 0.128,-0.149 0.145,-0.125 0.601,-0.228 0.18,-0.099 0.162,-0.117 0.394,-0.431 0.146,-0.123 0.342,-0.213 0.139,-0.137 0.109,-0.156 0.104,-0.173 0.128,-0.177 0.167,-0.159 0.243,-0.151 -3.416,-3.298 -2.806,-0.999 -0.467,-5.498 -0.468,-2.5 -2.806,-0.5 -1.871,-2.001 -0.468,-6.509 -4.677,0.501 -1.403,2.504 -2.806,1.002 -6.08,-2.504 -2.806,-4.008 h -4.677 l -5.145,3.507 -3.741,5.507 -0.936,3.001 -3.274,-1 -2.806,1 -3.274,-1.5 -3.274,-3.002 -2.806,-3.004 -5.144,-1.503 -4.677,-2.505 -4.966,-0.01 0.088,0.202 0.062,0.207 0.046,0.202 0.28,3.626 0.11,0.457 -0.006,0.366 -0.069,0.502 -0.261,0.948 -0.092,0.499 -0.02,0.376 0.043,0.483 -0.012,0.481 0.023,0.231 0.238,1.153 0.069,0.205 0.203,0.359 0.087,0.192 0.063,0.221 0.069,0.772 0.047,0.241 0.081,0.204 0.133,0.148 0.185,0.087 0.73,0.087 0.21,0.067 0.151,0.125 0.109,0.17 0.041,0.23 0.017,0.249 -0.15,1.893 -0.963,4.24 -0.017,0.354 0.069,0.204 0.081,0.192 0.064,0.215 0.086,0.479 0.053,0.735 0.052,0.18 0.052,0.127 0.366,0.612 0.074,0.208 0.048,0.229 0.018,0.515 -0.018,0.251 -0.314,1.571 -0.012,0.236 0.023,0.241 0.116,0.434 0.158,0.397 0.058,0.223 v 0.315 l -0.052,0.384 -0.65,2.739 -0.047,0.318 -0.011,0.753 -0.486,2.081 -0.325,0.724 -0.144,0.437 -0.07,0.321 0.006,0.585 -0.023,0.4 -0.11,0.32 -0.232,0.423 -0.059,0.284 0.011,0.246 0.054,0.222 0.024,0.232 -0.024,0.746 0.024,0.25 0.063,0.216 0.104,0.173 0.139,0.138 0.313,0.227 0.15,0.127 0.099,0.184 0.034,0.229 -0.069,0.561 0.029,0.242 0.156,0.445 0.058,0.296 -0.04,0.22 -0.111,0.167 -0.156,0.121 -0.538,0.291 -0.313,0.234 -0.185,0.172 -0.181,0.233 -0.238,0.4 -0.057,0.3 0.029,0.239 0.295,0.536 0.075,0.201 0.058,0.224 0.089,0.986 z"
         style="fill:none;stroke:#000000;stroke-width:0.5;stroke-linecap:round;stroke-linejoin:round;stroke-miterlimit:4;stroke-dasharray:none;stroke-opacity:1"
         id="path82"
         inkscape:connector-curvature="0" /></g><g
       id="Alaotra-Mangoro"
       transform="translate(437.7793,272.9482)"
       inkscape:label="#g84"><path
         d="M 0,0 -0.104,0.764 -0.099,1.705 -0.035,2.037 0.046,2.295 0.562,3.177 0.821,3.74 0.92,4.166 0.967,4.661 1.03,4.925 1.14,5.119 1.646,5.715 2.282,6.713 2.427,7.032 2.52,7.32 l 0.115,0.598 0.261,2.585 0.011,0.501 -0.098,0.778 -0.012,1.39 -0.214,0.6 -0.052,0.299 -0.023,0.391 0.063,1.158 -0.022,0.324 -0.065,0.201 -1.211,2.393 -0.081,0.309 -0.063,0.533 0.017,0.32 0.052,0.274 0.627,1.263 0.173,0.511 0.053,0.396 0.006,0.496 0.046,0.275 0.086,0.223 0.192,0.281 0.15,0.288 0.157,0.381 0.057,0.394 0.116,1.899 -0.029,0.893 0.105,1.332 -0.024,0.238 -0.278,1.085 -0.127,0.952 -0.087,3.04 0.475,2.627 1.246,3.586 0.15,0.688 0.029,0.506 -0.035,0.499 0.308,3.296 -0.035,1.413 0.051,0.348 0.047,0.221 0.064,0.122 0.208,0.291 0.608,0.53 0.15,0.206 0.181,0.339 0.041,0.277 -0.006,0.262 -0.051,0.205 -0.087,0.185 -0.303,0.51 -0.069,0.281 -0.036,0.382 v 1.083 L 5.3,52.07 l -0.573,1.01 -0.111,0.256 -0.04,0.348 0.081,2.426 -0.011,0.084 -0.042,0.119 -0.115,0.683 -0.029,0.773 0.063,0.437 0.087,0.371 0.14,0.353 0.006,0.248 -0.041,0.184 -0.22,0.382 -0.15,0.383 -0.18,0.892 L 4.038,61.433 3.76,61.962 3.696,62.175 3.562,63.909 3.5,64.118 3.399,64.287 3.266,64.417 3.093,64.52 2.52,64.767 2.189,64.98 l -0.15,0.12 -0.516,0.31 -0.15,0.122 -0.117,0.225 -0.075,0.195 -0.157,0.839 1.229,1.705 0.99,1.862 0.11,0.432 -0.104,0.466 -0.029,0.298 0.017,0.453 0.087,0.262 0.11,0.188 0.419,0.401 0.266,0.341 0.098,0.285 0.029,0.253 -0.017,0.624 0.063,0.516 0.099,0.28 0.122,0.193 0.121,0.09 0.098,0.057 0.163,0.061 0.184,0.052 0.227,0.019 0.219,-0.028 0.257,0.012 0.272,0.078 0.434,0.399 0.185,0.286 0.11,0.285 0.174,1.199 0.081,1.431 0.127,0.589 0.162,0.198 0.413,0.133 0.11,0.168 0.064,0.225 v 0.898 l 0.098,0.52 0.134,0.257 0.162,0.18 0.393,0.29 0.242,0.242 0.047,0.213 -0.029,0.497 0.093,0.386 0.023,0.257 -0.047,0.213 -0.162,0.095 -0.7,0.077 -0.174,0.139 -0.115,0.218 -0.066,0.377 0.042,0.248 0.099,0.194 0.492,0.393 0.208,0.257 0.128,0.321 0.364,1.645 0.105,0.308 0.115,0.226 0.362,0.366 0.265,0.329 0.463,0.713 0.191,0.394 0.099,0.316 -0.185,0.688 -0.024,0.405 0.065,0.236 0.121,0.182 0.289,0.246 0.231,0.299 0.801,1.487 0.174,0.531 0.057,0.383 -0.069,0.204 -0.081,0.186 -0.081,0.244 -0.071,0.313 -0.038,0.521 -0.078,0.303 -0.098,0.23 -0.07,0.266 -0.029,0.366 0.041,0.654 -0.058,0.337 -0.122,0.214 -0.191,0.085 -0.463,0.066 -0.492,-0.018 -0.243,0.018 -0.22,0.048 -0.192,0.08 -0.643,0.437 -0.532,0.547 -0.848,1.219 -0.022,0.183 -0.024,0.976 -0.098,0.356 -0.157,0.256 -0.167,0.191 -0.023,0.19 0.418,1.26 0.012,0.339 -0.077,0.242 -0.157,0.115 -0.353,0.188 -0.191,0.078 -0.168,0.101 -0.144,0.123 -0.105,0.161 -0.168,0.373 -0.109,0.166 -0.134,0.137 -0.15,0.115 -0.17,0.103 -0.154,0.157 -0.129,0.211 -0.111,0.694 -0.075,0.235 -0.097,0.17 -0.128,0.139 -0.272,0.211 -0.185,0.182 -0.111,0.131 -0.086,0.169 -0.128,0.405 -0.098,0.173 -0.115,0.154 -0.128,0.137 -0.232,0.306 -0.557,0.526 -0.214,0.326 -0.18,0.478 -0.098,0.385 0.034,0.291 0.093,0.276 0.174,0.333 0.04,0.276 -0.052,1.422 -0.144,0.966 -0.116,0.415 -0.157,0.382 -0.561,1.047 -0.058,0.206 -0.314,1.785 -0.004,0.745 0.11,0.931 0.058,0.237 0.255,0.604 0.075,0.266 0.301,2.325 0.006,0.356 -0.058,0.48 -0.278,1.349 v 0.338 l 0.041,0.276 0.249,0.559 0.219,0.319 0.272,0.266 0.469,0.331 0.292,0.302 0.121,0.281 0.029,0.26 -0.012,0.476 0.093,0.209 0.15,0.078 0.18,-0.064 0.318,-0.183 0.173,-0.024 0.117,0.012 0.162,0.066 0.324,0.187 0.196,0.048 h 0.197 l 0.21,-0.046 0.376,-0.159 0.417,-0.108 0.457,-0.006 0.215,0.024 0.226,-0.016 0.186,-0.075 0.348,-0.207 0.186,-0.074 0.208,-0.046 0.931,-0.054 0.243,0.012 0.204,0.054 0.192,0.076 0.18,0.091 0.19,0.07 0.666,0.135 0.196,0.076 0.516,0.283 0.196,0.073 1.797,0.313 0.459,-0.048 0.214,-0.052 0.226,-0.015 0.225,0.019 0.405,0.078 0.198,-0.03 0.179,-0.076 0.161,-0.105 0.425,-0.384 0.579,-0.757 0.139,-0.129 0.492,-0.314 0.278,-0.263 0.179,-0.096 0.191,-0.077 0.679,-0.134 0.18,-0.091 0.127,-0.139 0.069,-0.205 0.047,-0.749 0.075,-0.187 0.11,-0.121 0.168,-0.018 0.364,0.114 0.237,0.013 0.472,-0.013 0.862,0.162 0.208,-0.019 0.186,-0.07 0.289,-0.211 0.419,-0.384 1.03,-1.379 0.659,-0.419 0.373,-0.169 0.81,-0.269 0.729,-0.36 0.633,-0.441 0.261,-0.278 0.093,-0.172 0.115,-0.419 0.105,-0.167 0.15,-0.12 0.33,-0.205 0.133,-0.121 0.081,-0.157 0.081,-0.577 0.081,-0.187 0.208,-0.331 0.089,-0.177 0.05,-0.221 0.078,-0.946 -0.043,-0.43 0.023,-0.22 0.066,-0.189 0.104,-0.167 0.121,-0.145 0.417,-0.393 0.081,-0.175 0.046,-0.205 -0.012,-0.221 -0.051,-0.214 -0.157,-0.388 -0.592,-1.027 -0.161,-0.373 -0.117,-0.43 -0.029,-0.247 v -0.505 l 0.087,-0.447 0.136,-0.411 0.341,-0.723 1.192,-1.793 0.139,-0.133 0.168,-0.109 0.205,-0.054 0.219,0.006 0.208,0.05 0.174,0.085 0.33,0.212 0.301,0.239 0.694,0.657 3.176,2.222 0.186,0.078 0.202,0.065 0.22,0.018 0.452,-0.018 0.638,0.108 0.22,-0.018 0.776,-0.296 0.213,-0.052 0.232,-0.024 -0.917,-4.261 v -3.42 l -2.338,-5.867 0.935,-6.362 -1.871,-4.407 2.438,-2.838 -1.97,-5.004 -3.274,-2.453 0.935,-1.962 3.742,-1.963 0.935,-3.437 -1.403,-3.93 h -4.677 l -2.338,-0.983 2.338,-2.949 3.274,-3.934 0.468,-3.936 -4.678,-2.954 -4.676,-0.985 -1.403,-5.419 v -7.891 l 1.87,-5.924 3.275,-8.896 V 17.356 L 26.272,16.366 25.805,10.422 19.257,8.438 20.66,0.997 h -3.273 l -1.404,-8.94 -6.08,0.497 -2.805,2.484 -2.807,-1.987 -5.242,-1.032 0.348,0.928 0.099,1 v 0.232 l -0.059,0.318 -0.105,0.381 -0.081,0.459 -0.052,2.426 0.04,0.459 0.128,0.272 0.43,0.592 0.144,0.356 L 0,-0.263 Z"
         style="fill:none;stroke:#000000;stroke-width:0.5;stroke-linecap:round;stroke-linejoin:round;stroke-miterlimit:4;stroke-dasharray:none;stroke-opacity:1"
         id="path86"
         inkscape:connector-curvature="0" /></g><g
       id="ihorombe"
       transform="translate(404.6543,165.7803)"
       inkscape:label="#g88"><path
         d="m 0,0 1.871,-3.539 2.339,-9.11 3.273,-6.59 0.468,-6.089 v -5.079 -3.051 H 5.146 l -3.743,2.542 -4.209,2.032 -3.274,-0.508 -0.467,-2.541 0.935,-6.103 0.936,-8.658 -0.936,-7.651 -2.806,-3.063 -3.274,-0.512 -7.055,1.975 0.26,0.239 0.191,0.268 0.081,0.198 0.064,0.347 0.023,0.318 -0.052,0.422 -0.11,0.528 -0.353,0.692 -0.562,1.482 -0.289,0.461 -0.517,0.612 -0.718,1.052 -0.173,0.423 -0.157,0.862 -0.191,0.518 -0.081,0.414 0.11,0.347 0.255,0.258 0.683,0.425 0.303,0.255 0.209,0.321 0.185,0.759 0.121,0.368 0.174,0.357 0.11,0.389 -0.006,0.416 -0.214,0.832 -0.157,0.395 -0.109,0.401 v 0.431 l 0.115,0.403 0.377,0.716 0.121,0.37 0.017,0.351 -0.213,1.919 -0.168,0.589 -0.272,0.355 -0.355,0.252 -2.653,1.441 -0.215,0.203 -0.15,0.221 -0.133,0.539 -0.093,0.252 -0.636,1.26 -0.413,0.648 -0.318,0.673 -0.058,0.218 -0.104,0.252 -0.701,1.075 -0.035,0.073 -0.069,0.229 -0.087,0.455 -0.092,0.234 -0.355,0.664 -0.128,0.401 -2.114,4.75 -0.718,1.077 -0.208,0.252 -2.688,1.72 -0.823,0.677 -0.62,-0.142 -0.843,0.799 -2.757,1.715 -0.878,0.251 -1.599,-0.05 -2.406,0.232 -0.528,-0.038 -1.81,-0.383 -7.127,-2.924 -7.315,-4.227 -0.589,-0.773 -0.785,-4.913 0.027,-3.393 -0.548,-0.828 -0.208,-0.437 -0.009,-0.007 -0.501,-0.388 -0.214,-0.058 -0.237,-0.026 -0.251,0.008 -0.666,0.183 -0.486,0.061 -0.823,-0.061 -0.429,0.042 -0.22,0.126 -0.156,0.17 -0.069,0.201 -0.168,0.665 -0.191,0.354 -0.122,0.158 -0.202,0.363 -0.128,0.49 -0.11,0.283 -0.181,0.122 -0.208,0.038 -0.631,-0.147 -0.238,-0.009 -0.7,0.112 -0.233,0.006 -1.476,-0.193 -0.359,0.015 -0.569,0.098 -0.295,0.126 -0.215,0.143 -1.105,1.13 -0.372,0.459 -0.313,0.314 -0.104,0.126 -0.104,0.174 -0.104,0.196 -0.105,0.29 -0.057,0.255 -0.104,0.742 -0.058,0.214 -0.174,0.4 -0.122,0.199 -0.127,0.283 -0.069,0.251 -0.035,0.267 -0.023,0.544 -0.11,0.607 -0.018,0.271 0.024,0.249 0.306,0.822 0.4,1.587 0.156,0.408 0.226,0.36 0.092,0.195 0.058,0.188 0.041,0.191 0.034,0.562 0.024,0.149 0.057,0.177 0.251,0.572 0.047,0.234 0.003,0.258 -0.023,0.244 -0.04,0.228 -0.336,0.962 -0.029,0.264 -0.006,0.248 0.04,0.229 0.076,0.207 0.092,0.192 1.056,1.461 0.179,0.385 0.122,0.465 0.087,1.069 0.081,0.495 0.272,0.881 1.587,2.929 0.232,0.332 0.133,0.15 0.116,0.167 0.098,0.193 0.064,0.213 0.04,0.242 0.064,0.222 0.127,0.173 0.162,0.123 0.39,0.163 0.845,0.251 0.567,0.259 0.157,0.123 0.129,0.145 0.058,0.199 -0.012,0.213 -0.069,0.438 0.023,0.229 0.307,0.799 0.116,0.165 0.161,0.118 0.597,0.22 0.162,0.114 0.11,0.158 0.052,0.2 -0.041,0.25 -0.208,0.674 -0.058,0.306 -0.017,0.288 0.017,0.532 0.069,0.5 0.064,0.218 0.168,0.393 0.174,0.673 0.098,0.182 0.157,0.125 0.225,0.043 0.471,0.038 0.168,0.1 0.11,0.162 0.127,0.436 -0.006,0.306 -0.052,0.361 -0.197,0.552 -0.046,0.336 0.058,0.237 0.584,0.513 0.128,0.154 0.092,0.187 0.064,0.212 -0.052,0.342 -0.151,0.425 -0.439,0.724 -0.186,0.392 -0.092,0.331 0.028,0.23 0.064,0.213 0.163,0.405 0.034,0.222 -0.006,0.231 -0.341,1.805 -0.099,0.283 -0.121,0.268 -0.203,0.6 -0.552,0.939 -0.815,1.149 -0.302,0.563 -0.138,0.42 0.092,0.182 0.11,0.17 0.284,0.27 0.156,0.111 0.388,0.127 0.463,0.068 h 1.565 l 1.535,0.359 0.18,0.096 0.139,0.14 0.081,0.201 0.115,0.453 0.07,0.208 0.11,0.167 0.127,0.147 0.179,0.1 0.199,0.077 0.428,0.112 0.198,0.079 0.173,0.1 0.133,0.152 0.104,0.178 0.851,5.083 0.07,0.218 0.087,0.193 0.109,0.168 0.128,0.155 0.158,0.118 0.173,0.099 0.203,0.073 0.22,0.04 1.279,0.024 0.465,0.079 5.887,-3.803 3.274,-0.503 4.676,0.503 5.613,-0.503 7.015,-2.016 6.548,-3.527 1.403,-3.531 0.935,-5.045 2.807,-3.536 3.741,-0.505 h 4.677 3.742 z"
         style="fill:none;stroke:#000000;stroke-width:0.5;stroke-linecap:round;stroke-linejoin:round;stroke-miterlimit:4;stroke-dasharray:none;stroke-opacity:1"
         id="path90"
         inkscape:connector-curvature="0" /></g><g
       id="haute-matsiatra"
       transform="translate(404.6543,165.7803)"
       inkscape:label="#g92"><path
         d="m 0,0 -4.676,2.021 h -3.742 -4.677 l -3.741,0.505 -2.807,3.536 -0.935,5.045 -1.403,3.531 -6.548,3.527 -7.015,2.016 -5.613,0.503 -4.676,-0.503 -3.274,0.503 -5.887,3.803 0.428,0.118 0.191,0.082 0.162,0.107 0.139,0.143 0.087,0.185 0.041,0.206 -0.053,0.44 -0.086,0.4 -0.006,0.144 0.017,0.158 0.098,0.142 0.732,0.351 0.139,0.138 0.092,0.184 0.041,0.224 0.012,0.228 -0.024,0.242 -0.621,2.65 -0.035,0.222 0.012,0.221 0.214,0.886 0.023,0.251 -0.015,0.521 -0.234,1.093 -0.028,0.224 0.034,0.23 0.087,0.181 1.402,1.657 0.099,0.174 0.081,0.201 0.052,0.23 0.023,0.243 -0.046,0.712 0.046,0.22 0.104,0.173 0.139,0.137 0.18,0.1 0.424,0.109 0.15,0.114 0.11,0.172 0.151,0.414 0.092,0.187 0.116,0.157 0.151,0.129 0.197,0.076 0.22,0.048 0.202,0.076 0.128,0.153 0.104,0.185 0.145,0.13 0.372,0.162 0.497,0.311 0.429,0.088 0.191,0.087 0.173,0.098 0.191,0.084 0.72,0.077 0.214,0.06 0.185,0.093 0.145,0.13 0.104,0.174 0.093,0.193 0.064,0.219 0.104,1.002 -0.035,0.49 -0.712,4.057 0.012,0.239 0.063,0.199 0.116,0.145 0.428,0.397 0.243,0.331 0.492,0.918 4.967,0.009 4.677,2.505 5.144,1.503 2.806,3.004 3.274,3.002 3.274,1.501 2.806,-1.001 3.274,1.001 0.936,-3.002 3.741,-5.507 5.145,-3.507 h 4.677 l 2.806,4.008 6.08,2.504 2.806,-1.002 1.403,-2.504 4.677,-0.501 -1.403,-7.517 -1.871,-4.517 0.936,-3.012 L 16.37,33.26 14.031,21.69 12.628,15.646 11.225,12.621 12.628,9.595 7.016,6.566 2.807,4.042 Z"
         style="fill:none;stroke:#000000;stroke-width:0.5;stroke-linecap:round;stroke-linejoin:round;stroke-miterlimit:4;stroke-dasharray:none;stroke-opacity:1"
         id="path94"
         inkscape:connector-curvature="0" /></g><g
       id="itasy"
       transform="translate(409.9756,306.8457)"
       inkscape:label="#g96"><path
         d="m 0,0 1.726,-0.437 2.613,-0.564 1.157,-0.777 1.061,-0.41 0.492,-1.143 4,-6.776 1.87,-6.434 -1.402,-3.962 -3.743,-2.477 H 2.63 l -5.145,0.991 -1.403,1.982 -4.209,0.495 -4.677,-0.991 -4.677,-2.973 -3.274,-3.47 -2.806,-0.496 -3.742,0.992 -8.885,-1.488 3.741,5.454 5.612,6.933 3.742,5.938 1.87,6.921 3.742,3.457 3.742,0.494 6.08,-0.494 z"
         style="fill:none;stroke:#000000;stroke-width:0.5;stroke-linecap:round;stroke-linejoin:round;stroke-miterlimit:4;stroke-dasharray:none;stroke-opacity:1"
         id="path98"
         inkscape:connector-curvature="0" /></g><text
       transform="matrix(1,0,0,-1,681.6426,22.4082)"
       style="font-variant:normal;font-weight:normal;font-stretch:normal;font-size:14px;font-family:Roboto;-inkscape-font-specification:Roboto-Regular;writing-mode:lr-tb;fill:#000000;fill-opacity:1;fill-rule:nonzero;stroke:none"
       id="text102"><tspan
         x="0 11.004 14.476 23.072001 30.492001 42.756001 50.372002 58.226002 65.449997 69.132004 76.454002 84.433998"
         y="0"
         sodipodi:role="line"
         id="tspan100"> Vemaps.com</tspan></text>
</g></svg>